<svg width="193" height="193" viewBox="0 0 193 193" fill="none" xmlns="http://www.w3.org/2000/svg">
<circle cx="96.5781" cy="96.6296" r="50.7273" transform="rotate(87.8109 96.5781 96.6296)" stroke="#AB8626" stroke-width="1.43164" stroke-dasharray="5.01 5.01"/>
<path d="M95.4781 123.431L147.359 91.935C143.064 62.2285 122.038 51.9396 115.863 49.7017L95.4781 123.431Z" fill="#D2C19E" stroke="#AB8626" stroke-width="1.43164"/>
<path d="M98.251 114.37C99.9421 114.449 102.358 114.367 103.327 118.715" stroke="#AB8626" stroke-width="1.40867"/>
<path d="M99.1318 110.637C100.823 110.716 105.376 112.553 106.345 116.901" stroke="#AB8626" stroke-width="1.40867"/>
<path d="M106.868 100.923L107.967 100.263L110.891 105.129L111.929 104.505L112.662 105.724L111.623 106.348L113.176 108.932L112.041 109.614L110.488 107.03L107.011 109.12L106.372 108.057L106.868 100.923ZM109.756 105.811L107.898 102.72L107.594 107.109L109.756 105.811ZM117.081 105.107C117.604 104.793 117.931 104.399 118.063 103.925C118.19 103.444 118.108 102.961 117.818 102.478C117.668 102.229 117.487 102.036 117.274 101.901C117.07 101.761 116.852 101.673 116.622 101.636C116.395 101.586 116.159 101.585 115.914 101.634C115.669 101.682 115.438 101.772 115.221 101.902C114.706 102.212 114.343 102.621 114.134 103.13L113.101 103.489L110.725 98.6052L114.758 96.182L115.491 97.4015L112.327 99.3024L113.517 101.693C113.651 101.46 113.804 101.258 113.976 101.089C114.143 100.912 114.36 100.743 114.626 100.584C115.004 100.356 115.398 100.218 115.807 100.17C116.211 100.113 116.605 100.14 116.988 100.249C117.375 100.345 117.734 100.524 118.066 100.785C118.401 101.032 118.687 101.353 118.924 101.748C119.156 102.134 119.308 102.542 119.379 102.97C119.45 103.398 119.441 103.82 119.351 104.236C119.261 104.652 119.087 105.046 118.83 105.42C118.576 105.781 118.231 106.092 117.796 106.353C117.507 106.527 117.201 106.656 116.879 106.74C116.57 106.828 116.264 106.874 115.961 106.881C115.658 106.888 115.378 106.859 115.12 106.795C114.87 106.726 114.662 106.626 114.496 106.495L114.196 105.23C114.696 105.477 115.188 105.587 115.675 105.557C116.161 105.528 116.63 105.378 117.081 105.107ZM117.82 94.3915C117.991 94.1466 118.209 93.9443 118.474 93.7847C118.74 93.6251 119.021 93.5275 119.317 93.4919C119.609 93.4482 119.892 93.4641 120.168 93.5396C120.446 93.6023 120.704 93.7213 120.941 93.8967C121.186 94.0673 121.388 94.2854 121.548 94.551C121.707 94.8166 121.805 95.0976 121.841 95.394C121.884 95.6854 121.871 95.9729 121.8 96.2564C121.733 96.5271 121.614 96.7848 121.443 97.0297C121.268 97.2666 121.047 97.4648 120.782 97.6245C120.516 97.7841 120.237 97.8857 119.946 97.9294C119.65 97.965 119.362 97.9515 119.083 97.8889C118.808 97.8133 118.548 97.6903 118.303 97.5197C118.066 97.3443 117.868 97.1238 117.708 96.8582C117.548 96.5925 117.447 96.314 117.403 96.0225C117.368 95.7261 117.383 95.4427 117.451 95.1721C117.522 94.8886 117.645 94.6284 117.82 94.3915ZM120.172 96.6102C120.462 96.4361 120.646 96.2048 120.725 95.9165C120.804 95.6281 120.768 95.3592 120.618 95.1097C120.463 94.8521 120.243 94.6944 119.956 94.6366C119.664 94.5707 119.374 94.6249 119.084 94.799C118.802 94.9683 118.618 95.1995 118.531 95.4927C118.447 95.773 118.483 96.0419 118.638 96.2995C118.788 96.5491 119.009 96.7068 119.3 96.7726C119.6 96.8336 119.89 96.7795 120.172 96.6102Z" fill="#AB8626"/>
</svg>
