<svg width="156" height="123" viewBox="0 0 156 123" fill="none" xmlns="http://www.w3.org/2000/svg">
<path d="M9.871 10.328H15.212V46H9.871V10.328Z" fill="#4F4430"/>
<path d="M137.689 28.115C139.094 29.3563 140.237 30.6793 141.119 32.084C142.034 33.456 142.491 35.1057 142.491 37.033C142.491 38.4703 142.23 39.777 141.707 40.953C141.217 42.129 140.515 43.1417 139.6 43.991C138.718 44.8403 137.64 45.4937 136.366 45.951C135.092 46.4083 133.687 46.637 132.152 46.637C130.911 46.637 129.702 46.4573 128.526 46.098C127.383 45.7387 126.321 45.2813 125.341 44.726C124.394 44.138 123.577 43.501 122.891 42.815C122.205 42.0963 121.715 41.3777 121.421 40.659L123.087 35.269C124.1 36.9023 125.439 38.209 127.105 39.189C128.804 40.169 130.568 40.659 132.397 40.659C133.769 40.659 134.847 40.3487 135.631 39.728C136.448 39.1073 136.856 38.2417 136.856 37.131C136.856 36.2817 136.611 35.514 136.121 34.828C135.631 34.1093 134.978 33.407 134.161 32.721C132.299 31.1857 130.698 29.879 129.359 28.801C128.02 27.6903 126.909 26.6613 126.027 25.714C125.047 24.6687 124.23 23.5907 123.577 22.48C122.924 21.3693 122.597 20.079 122.597 18.609C122.597 17.3023 122.842 16.1263 123.332 15.081C123.822 14.0357 124.475 13.1537 125.292 12.435C126.141 11.6837 127.138 11.1283 128.281 10.769C129.424 10.377 130.666 10.181 132.005 10.181C133.018 10.181 133.998 10.3117 134.945 10.573C135.892 10.8343 136.758 11.1937 137.542 11.651C138.326 12.0757 139.012 12.582 139.6 13.17C140.221 13.758 140.711 14.3623 141.07 14.983L139.943 20.324C138.996 18.9847 137.787 17.9557 136.317 17.237C134.847 16.5183 133.41 16.159 132.005 16.159C131.548 16.159 131.09 16.208 130.633 16.306C130.208 16.404 129.816 16.551 129.457 16.747C129.098 16.943 128.804 17.2207 128.575 17.58C128.346 17.9067 128.232 18.315 128.232 18.805C128.232 19.5237 128.526 20.2097 129.114 20.863C129.702 21.4837 130.274 22.0227 130.829 22.48C131.776 23.264 132.593 23.9337 133.279 24.489C133.965 25.0443 134.569 25.5343 135.092 25.959C135.647 26.3837 136.121 26.7757 136.513 27.135C136.938 27.4617 137.33 27.7883 137.689 28.115Z" fill="#4F4430"/>
<path d="M9.871 67.328H15.212V103H9.871V67.328Z" fill="#4F4430"/>
<path d="M137.689 85.115C139.094 86.3563 140.237 87.6793 141.119 89.084C142.034 90.456 142.491 92.1057 142.491 94.033C142.491 95.4703 142.23 96.777 141.707 97.953C141.217 99.129 140.515 100.142 139.6 100.991C138.718 101.84 137.64 102.494 136.366 102.951C135.092 103.408 133.687 103.637 132.152 103.637C130.911 103.637 129.702 103.457 128.526 103.098C127.383 102.739 126.321 102.281 125.341 101.726C124.394 101.138 123.577 100.501 122.891 99.815C122.205 99.0963 121.715 98.3777 121.421 97.659L123.087 92.269C124.1 93.9023 125.439 95.209 127.105 96.189C128.804 97.169 130.568 97.659 132.397 97.659C133.769 97.659 134.847 97.3487 135.631 96.728C136.448 96.1073 136.856 95.2417 136.856 94.131C136.856 93.2817 136.611 92.514 136.121 91.828C135.631 91.1093 134.978 90.407 134.161 89.721C132.299 88.1857 130.698 86.879 129.359 85.801C128.02 84.6903 126.909 83.6613 126.027 82.714C125.047 81.6687 124.23 80.5907 123.577 79.48C122.924 78.3693 122.597 77.079 122.597 75.609C122.597 74.3023 122.842 73.1263 123.332 72.081C123.822 71.0357 124.475 70.1537 125.292 69.435C126.141 68.6837 127.138 68.1283 128.281 67.769C129.424 67.377 130.666 67.181 132.005 67.181C133.018 67.181 133.998 67.3117 134.945 67.573C135.892 67.8343 136.758 68.1937 137.542 68.651C138.326 69.0757 139.012 69.582 139.6 70.17C140.221 70.758 140.711 71.3623 141.07 71.983L139.943 77.324C138.996 75.9847 137.787 74.9557 136.317 74.237C134.847 73.5183 133.41 73.159 132.005 73.159C131.548 73.159 131.09 73.208 130.633 73.306C130.208 73.404 129.816 73.551 129.457 73.747C129.098 73.943 128.804 74.2207 128.575 74.58C128.346 74.9067 128.232 75.315 128.232 75.805C128.232 76.5237 128.526 77.2097 129.114 77.863C129.702 78.4837 130.274 79.0227 130.829 79.48C131.776 80.264 132.593 80.9337 133.279 81.489C133.965 82.0443 134.569 82.5343 135.092 82.959C135.647 83.3837 136.121 83.7757 136.513 84.135C136.938 84.4617 137.33 84.7883 137.689 85.115Z" fill="#4F4430"/>
<path d="M0 56.5H25" stroke="#4F4430" stroke-width="2"/>
<path d="M115 57L156 57" stroke="#4F4430" stroke-width="2"/>
<path d="M18.1424 34.1952L21.4694 31.6098H23.3333V46H21.0886V34.6161L18.1424 36.7005V34.1952Z" fill="#4F4430"/>
<path d="M146.142 34.1952L149.469 31.6098H151.333V46H149.089V34.6161L146.142 36.7005V34.1952Z" fill="#4F4430"/>
<path d="M21.8301 90.7944C21.4427 90.7944 21.0953 90.8478 20.788 90.9547C20.494 91.0616 20.2268 91.2086 19.9863 91.3956C19.7458 91.5693 19.532 91.7697 19.3449 91.9969C19.1712 92.224 19.0176 92.4578 18.884 92.6984L17.9019 91.0349C18.0088 90.6741 18.1825 90.3334 18.423 90.0127C18.6635 89.6787 18.9574 89.3914 19.3048 89.1509C19.6656 88.9104 20.0664 88.7167 20.5074 88.5697C20.9483 88.4227 21.4293 88.3492 21.9504 88.3492C22.6318 88.3492 23.2331 88.4628 23.7542 88.6899C24.2886 88.9037 24.7363 89.2043 25.097 89.5918C25.4578 89.9659 25.7317 90.4136 25.9187 90.9346C26.1058 91.4424 26.1993 91.9835 26.1993 92.5581C26.1993 93.0792 26.1392 93.5668 26.019 94.0211C25.8987 94.4621 25.7183 94.903 25.4778 95.3439C25.2507 95.7715 24.9634 96.2124 24.616 96.6667C24.282 97.121 23.8878 97.6087 23.4335 98.1298L21.3491 100.555H26.5601V103H17.962V101.036L21.9103 96.5665C22.5249 95.8583 23.0126 95.217 23.3734 94.6424C23.7342 94.0545 23.9145 93.4399 23.9145 92.7986C23.9145 92.2374 23.7275 91.7631 23.3533 91.3756C22.9792 90.9881 22.4715 90.7944 21.8301 90.7944Z" fill="#4F4430"/>
<path d="M149.83 90.7944C149.443 90.7944 149.095 90.8478 148.788 90.9547C148.494 91.0616 148.227 91.2086 147.986 91.3956C147.746 91.5693 147.532 91.7697 147.345 91.9969C147.171 92.224 147.018 92.4578 146.884 92.6984L145.902 91.0349C146.009 90.6741 146.182 90.3334 146.423 90.0127C146.663 89.6787 146.957 89.3914 147.305 89.1509C147.666 88.9104 148.066 88.7167 148.507 88.5697C148.948 88.4227 149.429 88.3492 149.95 88.3492C150.632 88.3492 151.233 88.4628 151.754 88.6899C152.289 88.9037 152.736 89.2043 153.097 89.5918C153.458 89.9659 153.732 90.4136 153.919 90.9346C154.106 91.4424 154.199 91.9835 154.199 92.5581C154.199 93.0792 154.139 93.5668 154.019 94.0211C153.899 94.4621 153.718 94.903 153.478 95.3439C153.251 95.7715 152.963 96.2124 152.616 96.6667C152.282 97.121 151.888 97.6087 151.434 98.1298L149.349 100.555H154.56V103H145.962V101.036L149.91 96.5665C150.525 95.8583 151.013 95.217 151.373 94.6424C151.734 94.0545 151.915 93.4399 151.915 92.7986C151.915 92.2374 151.727 91.7631 151.353 91.3756C150.979 90.9881 150.471 90.7944 149.83 90.7944Z" fill="#4F4430"/>
<path d="M60.695 55.85V50.803H81.912V55.85H60.695ZM60.695 66.238V61.191H81.912V66.238H60.695Z" fill="#4F4430"/>
</svg>
