<svg width="373" height="309" viewBox="0 0 373 309" fill="none" xmlns="http://www.w3.org/2000/svg">
<path d="M81.8 67.1C81.54 67.66 81.15 68.2 80.63 68.72C80.11 69.22 79.49 69.67 78.77 70.07C78.07 70.45 77.28 70.76 76.4 71C75.52 71.22 74.6 71.33 73.64 71.33C72.24 71.33 70.91 71.07 69.65 70.55C68.41 70.03 67.31 69.29 66.35 68.33C65.41 67.35 64.66 66.18 64.1 64.82C63.54 63.44 63.26 61.91 63.26 60.23C63.26 58.55 63.54 57.03 64.1 55.67C64.66 54.29 65.41 53.12 66.35 52.16C67.31 51.18 68.41 50.43 69.65 49.91C70.91 49.39 72.24 49.13 73.64 49.13C74.6 49.13 75.51 49.25 76.37 49.49C77.23 49.73 78.01 50.05 78.71 50.45C79.43 50.83 80.04 51.27 80.54 51.77C81.04 52.27 81.41 52.77 81.65 53.27L80.96 55.4C80.16 54.24 79.14 53.33 77.9 52.67C76.68 51.99 75.28 51.65 73.7 51.65C72.5 51.65 71.4 51.86 70.4 52.28C69.4 52.68 68.54 53.26 67.82 54.02C67.12 54.76 66.57 55.66 66.17 56.72C65.79 57.76 65.6 58.93 65.6 60.23C65.6 61.53 65.79 62.71 66.17 63.77C66.57 64.81 67.12 65.71 67.82 66.47C68.54 67.21 69.4 67.79 70.4 68.21C71.4 68.61 72.5 68.81 73.7 68.81C75.36 68.81 76.82 68.45 78.08 67.73C79.36 67.01 80.37 66.11 81.11 65.03L81.8 67.1Z" fill="#C7B07C"/>
<path d="M220.65 142H218.13L216.09 136.78H205.95L203.94 142H201.42L209.85 120.46H212.28L220.65 142ZM206.94 134.29H215.13L211.02 123.79L206.94 134.29Z" fill="#C7B07C"/>
<path d="M270.72 285.6C271.56 285.96 272.27 286.58 272.85 287.46C273.45 288.34 273.75 289.42 273.75 290.7C273.75 291.7 273.59 292.59 273.27 293.37C272.95 294.15 272.5 294.81 271.92 295.35C271.36 295.89 270.68 296.3 269.88 296.58C269.08 296.86 268.2 297 267.24 297H260.76V275.46H266.13C267.09 275.46 267.97 275.6 268.77 275.88C269.57 276.14 270.25 276.52 270.81 277.02C271.39 277.52 271.84 278.14 272.16 278.88C272.48 279.6 272.64 280.42 272.64 281.34C272.64 282.34 272.46 283.19 272.1 283.89C271.76 284.59 271.3 285.16 270.72 285.6ZM267.63 294.51C268.13 294.51 268.61 294.42 269.07 294.24C269.53 294.06 269.93 293.81 270.27 293.49C270.63 293.15 270.91 292.76 271.11 292.32C271.31 291.86 271.41 291.36 271.41 290.82C271.41 290.34 271.31 289.88 271.11 289.44C270.93 289 270.67 288.61 270.33 288.27C270.01 287.93 269.61 287.66 269.13 287.46C268.67 287.26 268.17 287.16 267.63 287.16H263.1V294.51H267.63ZM263.1 284.67H266.73C267.75 284.67 268.6 284.38 269.28 283.8C269.96 283.2 270.3 282.39 270.3 281.37C270.3 280.89 270.21 280.44 270.03 280.02C269.85 279.6 269.6 279.24 269.28 278.94C268.98 278.64 268.61 278.4 268.17 278.22C267.73 278.04 267.25 277.95 266.73 277.95H263.1V284.67Z" fill="#C7B07C"/>
<path d="M207.54 286.23C207.54 285.07 207.34 283.99 206.94 282.99C206.54 281.99 205.98 281.12 205.26 280.38C204.54 279.62 203.67 279.03 202.65 278.61C201.65 278.17 200.54 277.95 199.32 277.95H194.1V294.51H199.32C200.48 294.51 201.56 294.31 202.56 293.91C203.58 293.51 204.45 292.95 205.17 292.23C205.91 291.49 206.49 290.62 206.91 289.62C207.33 288.6 207.54 287.47 207.54 286.23ZM198.39 275.46C200.05 275.46 201.58 275.7 202.98 276.18C204.38 276.66 205.59 277.36 206.61 278.28C207.63 279.18 208.43 280.3 209.01 281.64C209.59 282.98 209.88 284.51 209.88 286.23C209.88 287.93 209.59 289.45 209.01 290.79C208.43 292.11 207.62 293.23 206.58 294.15C205.56 295.07 204.35 295.78 202.95 296.28C201.55 296.76 200.03 297 198.39 297H191.76V275.46H198.39Z" fill="#C7B07C"/>
<path d="M107 307H368.5L55 15" stroke="#C7B07C" stroke-width="3"/>
<path d="M186 307L73 1" stroke="#C7B07C" stroke-width="3"/>
<path d="M255 307L142 1" stroke="#C7B07C" stroke-width="3"/>
<path d="M356 295.5C353.833 297.333 350 302.2 352 307" stroke="#C7B07C" stroke-width="3"/>
<path d="M183 134C180.333 135.333 175.8 139.6 179 146" stroke="#C7B07C" stroke-width="3"/>
<path d="M99 71.5C101.333 71.6667 106.6 70.7 109 65.5" stroke="#C7B07C" stroke-width="3"/>
<path d="M205 169C207.333 169.167 212.6 168.2 215 163" stroke="#C7B07C" stroke-width="3"/>
<path d="M101 76.5C103.333 76.6667 110.1 74.7 112.5 69.5" stroke="#C7B07C" stroke-width="3"/>
<path d="M207 174C209.333 174.167 216.1 172.2 218.5 167" stroke="#C7B07C" stroke-width="3"/>
<path d="M102.8 130.1C102.54 130.66 102.15 131.2 101.63 131.72C101.11 132.22 100.49 132.67 99.77 133.07C99.07 133.45 98.28 133.76 97.4 134C96.52 134.22 95.6 134.33 94.64 134.33C93.24 134.33 91.91 134.07 90.65 133.55C89.41 133.03 88.31 132.29 87.35 131.33C86.41 130.35 85.66 129.18 85.1 127.82C84.54 126.44 84.26 124.91 84.26 123.23C84.26 121.55 84.54 120.03 85.1 118.67C85.66 117.29 86.41 116.12 87.35 115.16C88.31 114.18 89.41 113.43 90.65 112.91C91.91 112.39 93.24 112.13 94.64 112.13C95.6 112.13 96.51 112.25 97.37 112.49C98.23 112.73 99.01 113.05 99.71 113.45C100.43 113.83 101.04 114.27 101.54 114.77C102.04 115.27 102.41 115.77 102.65 116.27L101.96 118.4C101.16 117.24 100.14 116.33 98.9 115.67C97.68 114.99 96.28 114.65 94.7 114.65C93.5 114.65 92.4 114.86 91.4 115.28C90.4 115.68 89.54 116.26 88.82 117.02C88.12 117.76 87.57 118.66 87.17 119.72C86.79 120.76 86.6 121.93 86.6 123.23C86.6 124.53 86.79 125.71 87.17 126.77C87.57 127.81 88.12 128.71 88.82 129.47C89.54 130.21 90.4 130.79 91.4 131.21C92.4 131.61 93.5 131.81 94.7 131.81C96.36 131.81 97.82 131.45 99.08 130.73C100.36 130.01 101.37 129.11 102.11 128.03L102.8 130.1Z" fill="#C7B07C"/>
<path d="M104.93 127L107.255 125.23H108.395V136H107.225V126.64L104.93 128.32V127Z" fill="#C7B07C"/>
<path d="M0 146H195.5" stroke="#C7B07C" stroke-width="3"/>
</svg>
