<svg width="734" height="549" viewBox="0 0 734 549" fill="none" xmlns="http://www.w3.org/2000/svg">
<path d="M368.061 0.93934C367.475 0.353553 366.525 0.353553 365.939 0.93934L356.393 10.4853C355.808 11.0711 355.808 12.0208 356.393 12.6066C356.979 13.1924 357.929 13.1924 358.515 12.6066L367 4.12132L375.485 12.6066C376.071 13.1924 377.021 13.1924 377.607 12.6066C378.192 12.0208 378.192 11.0711 377.607 10.4853L368.061 0.93934ZM365.5 2L365.5 547L368.5 547L368.5 2L365.5 2Z" fill="#785E1B"/>
<path d="M732.72 367.242C733.306 366.657 733.306 365.707 732.72 365.121L723.174 355.575C722.588 354.989 721.638 354.989 721.053 355.575C720.467 356.161 720.467 357.111 721.053 357.696L729.538 366.182L721.053 374.667C720.467 375.253 720.467 376.203 721.053 376.788C721.638 377.374 722.588 377.374 723.174 376.788L732.72 367.242ZM-1.31134e-07 367.682L731.659 367.682L731.659 364.682L1.31134e-07 364.682L-1.31134e-07 367.682Z" fill="#785E1B"/>
<path d="M367.147 134.16C440.753 134.819 590.139 182.146 598.84 366.182" stroke="#785E1B" stroke-width="3"/>
<path d="M135.127 366.512C139.305 454.898 175.934 511.751 221.033 547.046" stroke="#785E1B" stroke-width="3"/>
<path d="M710.196 397.83H707.128L713.2 389.367L707.742 381.939H710.778L714.686 387.3L718.562 381.939H721.63L716.204 389.432L722.341 397.83H719.337L714.751 391.531L710.196 397.83Z" fill="#785E1B"/>
<path d="M344.67 375.059C345.639 374.542 346.715 374.284 347.9 374.284C349.084 374.284 350.15 374.542 351.097 375.059C352.066 375.576 352.884 376.34 353.552 377.352C354.219 378.364 354.736 379.613 355.102 381.099C355.468 382.585 355.651 384.297 355.651 386.234C355.651 388.172 355.468 389.884 355.102 391.37C354.736 392.856 354.219 394.104 353.552 395.117C352.884 396.129 352.066 396.893 351.097 397.41C350.15 397.926 349.084 398.185 347.9 398.185C346.715 398.185 345.639 397.926 344.67 397.41C343.722 396.893 342.915 396.129 342.247 395.117C341.58 394.104 341.063 392.856 340.697 391.37C340.331 389.884 340.148 388.172 340.148 386.234C340.148 384.297 340.331 382.585 340.697 381.099C341.063 379.613 341.58 378.364 342.247 377.352C342.915 376.34 343.722 375.576 344.67 375.059ZM349.999 377.611C349.353 377.202 348.653 376.997 347.9 376.997C347.146 376.997 346.446 377.202 345.8 377.611C345.154 378.02 344.594 378.623 344.121 379.419C343.669 380.195 343.313 381.153 343.055 382.294C342.796 383.435 342.667 384.749 342.667 386.234C342.667 387.72 342.796 389.034 343.055 390.175C343.313 391.316 343.669 392.285 344.121 393.082C344.594 393.857 345.154 394.449 345.8 394.858C346.446 395.267 347.146 395.472 347.9 395.472C348.653 395.472 349.353 395.267 349.999 394.858C350.645 394.449 351.194 393.857 351.646 393.082C352.12 392.285 352.486 391.316 352.744 390.175C353.003 389.034 353.132 387.72 353.132 386.234C353.132 384.749 353.003 383.435 352.744 382.294C352.486 381.153 352.12 380.195 351.646 379.419C351.194 378.623 350.645 378.02 349.999 377.611Z" fill="#785E1B"/>
<path d="M594.581 378.451L599.587 374.639H602.042V397.83H599.522V377.675L594.581 381.293V378.451Z" fill="#785E1B"/>
<path d="M133.784 344.249V346.736H123.771V344.249H133.784ZM136.976 334.947L141.982 331.135H144.437V354.326H141.917V334.171L136.976 337.789V334.947Z" fill="#785E1B"/>
</svg>
