<svg width="752" height="499" viewBox="0 0 752 499" fill="none" xmlns="http://www.w3.org/2000/svg">
<line x1="31.437" y1="17.9866" x2="31.437" y2="450.121" stroke="#C7B07C" stroke-width="3.5791"/>
<line x1="29.6475" y1="448.331" x2="750.723" y2="448.331" stroke="#C7B07C" stroke-width="3.5791"/>
<path d="M392.816 16.8984C393.055 15.9394 392.471 14.9682 391.512 14.7291L375.885 10.8327C374.926 10.5936 373.954 11.1772 373.715 12.1362C373.476 13.0952 374.06 14.0664 375.019 14.3055L388.91 17.7689L385.446 31.6601C385.207 32.6191 385.791 33.5903 386.75 33.8294C387.709 34.0685 388.68 33.4849 388.919 32.526L392.816 16.8984ZM32.8343 233.808L392.001 17.9994L390.157 14.9315L30.9909 230.741L32.8343 233.808Z" fill="#C7B07C"/>
<line x1="31.8025" y1="232.594" x2="391.151" y2="448.513" stroke="#C7B07C" stroke-width="3.5791"/>
<line x1="390.116" y1="448.741" x2="750.226" y2="232.365" stroke="#C7B07C" stroke-width="3.5791"/>
<path d="M31.5645 202.73C38.3831 201.026 53.299 201.452 58.413 216.794" stroke="#C7B07C" stroke-width="3.5791"/>
<path d="M333.898 448.031C330.17 442.072 325.966 427.755 338.977 418.15" stroke="#C7B07C" stroke-width="3.5791"/>
<path d="M445.751 448.039C449.479 442.08 453.683 427.763 440.672 418.158" stroke="#C7B07C" stroke-width="3.5791"/>
<path d="M463.06 448.203C466.788 442.245 470.731 421.994 454.111 410.487" stroke="#C7B07C" stroke-width="3.5791"/>
<path d="M317.733 448.203C314.005 442.245 310.062 421.994 326.682 410.487" stroke="#C7B07C" stroke-width="3.5791"/>
<path d="M58.1465 249.014C56.0703 255.728 47.9752 268.264 32.2041 264.686" stroke="#C7B07C" stroke-width="3.5791"/>
<path d="M52.2429 166.395C52.136 166.426 52.0368 166.441 51.9452 166.441H51.6016C50.8227 166.441 50.0974 166.304 49.4255 166.029C48.7688 165.739 48.1962 165.349 47.7075 164.861C47.2341 164.372 46.86 163.807 46.5851 163.166C46.3102 162.509 46.1728 161.814 46.1728 161.081C46.1728 160.302 46.3179 159.577 46.608 158.905C46.9134 158.218 47.3181 157.622 47.822 157.118C48.326 156.615 48.9063 156.217 49.5629 155.927C50.2348 155.637 50.9373 155.492 51.6703 155.492C52.4491 155.492 53.1745 155.637 53.8464 155.927C54.5183 156.202 55.0909 156.592 55.5643 157.096C56.053 157.584 56.4348 158.165 56.7096 158.836C56.9845 159.508 57.122 160.234 57.122 161.013C57.122 161.929 56.954 162.792 56.618 163.601C56.2973 164.41 55.9308 165.159 55.5185 165.846L51.6474 172.237H48.6696L52.2429 166.395ZM52.7469 158.493C52.3956 158.355 52.0215 158.287 51.6245 158.287C51.2274 158.287 50.8533 158.355 50.5021 158.493C50.1661 158.63 49.8683 158.821 49.6087 159.065C49.3491 159.295 49.143 159.569 48.9902 159.89C48.8528 160.211 48.7841 160.554 48.7841 160.921C48.7841 161.287 48.8528 161.639 48.9902 161.975C49.143 162.311 49.3415 162.601 49.5858 162.845C49.8454 163.089 50.1508 163.288 50.5021 163.441C50.8686 163.578 51.2656 163.647 51.6932 163.647C52.0902 163.647 52.4567 163.578 52.7927 163.441C53.1286 163.303 53.4264 163.12 53.686 162.891C53.9456 162.646 54.1442 162.356 54.2816 162.02C54.4343 161.684 54.5107 161.318 54.5107 160.921C54.5107 160.524 54.4343 160.165 54.2816 159.844C54.1289 159.524 53.9227 159.249 53.6631 159.02C53.4035 158.791 53.0981 158.615 52.7469 158.493ZM62.8088 156.065C63.5112 155.683 64.2977 155.492 65.1681 155.492C66.0386 155.492 66.8174 155.683 67.5046 156.065C68.207 156.447 68.8026 157.004 69.2913 157.737C69.7799 158.455 70.1541 159.348 70.4137 160.417C70.6733 161.471 70.8031 162.677 70.8031 164.036C70.8031 165.38 70.6733 166.579 70.4137 167.632C70.1541 168.686 69.7799 169.579 69.2913 170.312C68.8179 171.03 68.2299 171.58 67.5275 171.962C66.8403 172.343 66.0615 172.534 65.191 172.534C64.2901 172.534 63.4883 172.343 62.7859 171.962C62.0834 171.565 61.4879 171 60.9992 170.267C60.5105 169.534 60.1364 168.64 59.8768 167.587C59.6325 166.533 59.5103 165.342 59.5103 164.013C59.5103 162.669 59.6401 161.471 59.8997 160.417C60.1593 159.348 60.5334 158.455 61.0221 157.737C61.5108 157.004 62.1063 156.447 62.8088 156.065ZM65.1681 169.74C66.0386 169.74 66.7563 169.259 67.3213 168.297C67.9016 167.319 68.1918 165.899 68.1918 164.036C68.1918 162.204 67.9092 160.791 67.3442 159.798C66.7792 158.791 66.0538 158.287 65.1681 158.287C64.313 158.287 63.5952 158.768 63.0149 159.73C62.4347 160.692 62.1445 162.127 62.1445 164.036C62.1445 164.998 62.2209 165.838 62.3736 166.556C62.5263 167.258 62.7401 167.846 63.0149 168.32C63.2898 168.793 63.6105 169.152 63.977 169.396C64.3435 169.625 64.7405 169.74 65.1681 169.74ZM75.5309 155.859C75.989 155.66 76.4777 155.561 76.9969 155.561C77.5161 155.561 78.0047 155.66 78.4629 155.859C78.921 156.057 79.318 156.332 79.654 156.683C79.9899 157.019 80.2572 157.416 80.4557 157.874C80.6542 158.332 80.7535 158.821 80.7535 159.34C80.7535 159.86 80.6542 160.348 80.4557 160.806C80.2572 161.264 79.9899 161.662 79.654 161.997C79.318 162.333 78.921 162.601 78.4629 162.799C78.0047 162.998 77.5161 163.097 76.9969 163.097C76.4777 163.097 75.989 162.998 75.5309 162.799C75.0727 162.601 74.6681 162.333 74.3168 161.997C73.9809 161.662 73.7136 161.264 73.5151 160.806C73.3166 160.348 73.2173 159.86 73.2173 159.34C73.2173 158.821 73.3166 158.332 73.5151 157.874C73.7136 157.416 73.9809 157.019 74.3168 156.683C74.6681 156.332 75.0727 156.057 75.5309 155.859ZM75.737 160.463C76.073 160.768 76.4929 160.921 76.9969 160.921C77.5008 160.921 77.9131 160.768 78.2338 160.463C78.5545 160.157 78.7148 159.783 78.7148 159.34C78.7148 158.898 78.5545 158.523 78.2338 158.218C77.9131 157.913 77.5008 157.76 76.9969 157.76C76.4929 157.76 76.073 157.913 75.737 158.218C75.4163 158.523 75.256 158.898 75.256 159.34C75.256 159.783 75.4163 160.157 75.737 160.463ZM90.897 164.792V167.06H83.4983V164.792H90.897ZM107.328 168.091C107.175 167.816 106.854 167.602 106.366 167.449C105.892 167.296 105.365 167.22 104.785 167.22C103.976 167.22 103.35 167.35 102.907 167.61C102.479 167.854 102.265 168.197 102.265 168.64C102.265 169.068 102.479 169.411 102.907 169.671C103.35 169.931 103.976 170.06 104.785 170.06C105.35 170.06 105.869 169.954 106.343 169.74C106.831 169.526 107.16 169.259 107.328 168.938V168.091ZM100.341 162.387C100.769 161.746 101.38 161.242 102.174 160.875C102.983 160.509 103.846 160.325 104.762 160.325C106.289 160.325 107.511 160.722 108.427 161.516C109.359 162.295 109.825 163.418 109.825 164.884V172.237H107.419V171.229C107.282 171.427 107.091 171.61 106.847 171.778C106.602 171.931 106.328 172.069 106.022 172.191C105.732 172.298 105.427 172.382 105.106 172.443C104.785 172.504 104.464 172.534 104.144 172.534C103.502 172.534 102.907 172.443 102.357 172.259C101.823 172.091 101.357 171.847 100.96 171.526C100.578 171.191 100.28 170.793 100.066 170.335C99.8527 169.862 99.7458 169.327 99.7458 168.732C99.7458 168.121 99.868 167.587 100.112 167.128C100.357 166.655 100.685 166.258 101.097 165.937C101.525 165.617 102.014 165.38 102.563 165.227C103.128 165.059 103.724 164.975 104.35 164.975C104.991 164.975 105.579 165.052 106.114 165.204C106.663 165.357 107.068 165.563 107.328 165.823V165.342C107.328 164.914 107.244 164.548 107.076 164.242C106.923 163.937 106.717 163.693 106.457 163.509C106.198 163.311 105.892 163.173 105.541 163.097C105.19 163.005 104.823 162.96 104.442 162.96C103.724 162.96 103.052 163.097 102.426 163.372C101.815 163.631 101.334 163.998 100.983 164.471L100.341 162.387Z" fill="#C7B07C"/>
<path d="M51.5281 300.969C51.4212 301 51.3219 301.015 51.2303 301.015H50.8867C50.1079 301.015 49.3825 300.878 48.7106 300.603C48.054 300.313 47.4813 299.923 46.9927 299.435C46.5193 298.946 46.1451 298.381 45.8703 297.74C45.5954 297.083 45.4579 296.388 45.4579 295.655C45.4579 294.876 45.603 294.151 45.8932 293.479C46.1986 292.792 46.6033 292.196 47.1072 291.692C47.6111 291.189 48.1914 290.791 48.8481 290.501C49.52 290.211 50.2224 290.066 50.9554 290.066C51.7342 290.066 52.4596 290.211 53.1315 290.501C53.8034 290.776 54.3761 291.166 54.8495 291.67C55.3382 292.158 55.7199 292.738 55.9948 293.41C56.2697 294.082 56.4071 294.808 56.4071 295.586C56.4071 296.503 56.2391 297.366 55.9032 298.175C55.5825 298.984 55.216 299.733 54.8037 300.42L50.9325 306.811H47.9547L51.5281 300.969ZM52.032 293.067C51.6808 292.929 51.3067 292.861 50.9096 292.861C50.5126 292.861 50.1384 292.929 49.7872 293.067C49.4513 293.204 49.1535 293.395 48.8939 293.639C48.6343 293.869 48.4281 294.143 48.2754 294.464C48.138 294.785 48.0693 295.128 48.0693 295.495C48.0693 295.861 48.138 296.213 48.2754 296.549C48.4281 296.885 48.6266 297.175 48.871 297.419C49.1306 297.663 49.436 297.862 49.7872 298.015C50.1537 298.152 50.5508 298.221 50.9783 298.221C51.3754 298.221 51.7419 298.152 52.0778 298.015C52.4138 297.877 52.7116 297.694 52.9712 297.465C53.2308 297.22 53.4293 296.93 53.5667 296.594C53.7195 296.258 53.7958 295.892 53.7958 295.495C53.7958 295.098 53.7195 294.739 53.5667 294.418C53.414 294.098 53.2079 293.823 52.9483 293.594C52.6887 293.365 52.3833 293.189 52.032 293.067ZM62.0939 290.639C62.7964 290.257 63.5828 290.066 64.4533 290.066C65.3237 290.066 66.1025 290.257 66.7897 290.639C67.4922 291.021 68.0877 291.578 68.5764 292.311C69.0651 293.029 69.4392 293.922 69.6988 294.991C69.9584 296.045 70.0882 297.251 70.0882 298.61C70.0882 299.954 69.9584 301.153 69.6988 302.206C69.4392 303.26 69.0651 304.153 68.5764 304.886C68.103 305.604 67.5151 306.154 66.8126 306.536C66.1254 306.917 65.3466 307.108 64.4762 307.108C63.5752 307.108 62.7735 306.917 62.071 306.536C61.3686 306.139 60.773 305.574 60.2844 304.841C59.7957 304.108 59.4216 303.214 59.1619 302.161C58.9176 301.107 58.7954 299.916 58.7954 298.587C58.7954 297.243 58.9252 296.045 59.1849 294.991C59.4445 293.922 59.8186 293.029 60.3073 292.311C60.7959 291.578 61.3915 291.021 62.0939 290.639ZM64.4533 304.314C65.3237 304.314 66.0415 303.833 66.6065 302.871C67.1868 301.893 67.4769 300.473 67.4769 298.61C67.4769 296.778 67.1944 295.365 66.6294 294.372C66.0644 293.365 65.339 292.861 64.4533 292.861C63.5981 292.861 62.8804 293.342 62.3001 294.304C61.7198 295.266 61.4297 296.701 61.4297 298.61C61.4297 299.572 61.506 300.412 61.6587 301.13C61.8114 301.832 62.0252 302.42 62.3001 302.894C62.575 303.367 62.8957 303.726 63.2622 303.97C63.6287 304.199 64.0257 304.314 64.4533 304.314ZM74.816 290.433C75.2741 290.234 75.7628 290.135 76.282 290.135C76.8012 290.135 77.2899 290.234 77.748 290.433C78.2061 290.631 78.6032 290.906 78.9391 291.257C79.2751 291.593 79.5423 291.99 79.7409 292.448C79.9394 292.906 80.0386 293.395 80.0386 293.914C80.0386 294.434 79.9394 294.922 79.7409 295.38C79.5423 295.838 79.2751 296.236 78.9391 296.571C78.6032 296.907 78.2061 297.175 77.748 297.373C77.2899 297.572 76.8012 297.671 76.282 297.671C75.7628 297.671 75.2741 297.572 74.816 297.373C74.3579 297.175 73.9532 296.907 73.602 296.571C73.266 296.236 72.9988 295.838 72.8003 295.38C72.6018 294.922 72.5025 294.434 72.5025 293.914C72.5025 293.395 72.6018 292.906 72.8003 292.448C72.9988 291.99 73.266 291.593 73.602 291.257C73.9532 290.906 74.3579 290.631 74.816 290.433ZM75.0222 295.037C75.3581 295.342 75.7781 295.495 76.282 295.495C76.786 295.495 77.1983 295.342 77.519 295.037C77.8396 294.731 78 294.357 78 293.914C78 293.471 77.8396 293.097 77.519 292.792C77.1983 292.487 76.786 292.334 76.282 292.334C75.7781 292.334 75.3581 292.487 75.0222 292.792C74.7015 293.097 74.5412 293.471 74.5412 293.914C74.5412 294.357 74.7015 294.731 75.0222 295.037ZM90.1822 299.366V301.634H82.7835V299.366H90.1822ZM106.613 302.665C106.46 302.39 106.14 302.176 105.651 302.023C105.177 301.87 104.651 301.794 104.07 301.794C103.261 301.794 102.635 301.924 102.192 302.183C101.764 302.428 101.551 302.771 101.551 303.214C101.551 303.642 101.764 303.985 102.192 304.245C102.635 304.505 103.261 304.634 104.07 304.634C104.635 304.634 105.155 304.528 105.628 304.314C106.117 304.1 106.445 303.833 106.613 303.512V302.665ZM99.6265 296.961C100.054 296.319 100.665 295.816 101.459 295.449C102.268 295.083 103.131 294.899 104.047 294.899C105.574 294.899 106.796 295.296 107.712 296.09C108.644 296.869 109.11 297.992 109.11 299.458V306.811H106.705V305.803C106.567 306.001 106.376 306.184 106.132 306.352C105.888 306.505 105.613 306.643 105.307 306.765C105.017 306.872 104.712 306.956 104.391 307.017C104.07 307.078 103.75 307.108 103.429 307.108C102.788 307.108 102.192 307.017 101.642 306.833C101.108 306.665 100.642 306.421 100.245 306.1C99.8632 305.764 99.5654 305.367 99.3516 304.909C99.1378 304.436 99.0309 303.901 99.0309 303.306C99.0309 302.695 99.1531 302.161 99.3974 301.702C99.6418 301.229 99.9701 300.832 100.382 300.511C100.81 300.191 101.299 299.954 101.848 299.801C102.413 299.633 103.009 299.549 103.635 299.549C104.276 299.549 104.864 299.626 105.399 299.778C105.949 299.931 106.353 300.137 106.613 300.397V299.916C106.613 299.488 106.529 299.122 106.361 298.816C106.208 298.511 106.002 298.267 105.742 298.083C105.483 297.885 105.177 297.747 104.826 297.671C104.475 297.579 104.108 297.534 103.727 297.534C103.009 297.534 102.337 297.671 101.711 297.946C101.1 298.205 100.619 298.572 100.268 299.045L99.6265 296.961Z" fill="#C7B07C"/>
<path d="M290.623 429.365C290.47 429.09 290.15 428.876 289.661 428.723C289.188 428.571 288.661 428.494 288.08 428.494C287.271 428.494 286.645 428.624 286.202 428.884C285.775 429.128 285.561 429.471 285.561 429.914C285.561 430.342 285.775 430.686 286.202 430.945C286.645 431.205 287.271 431.335 288.08 431.335C288.645 431.335 289.165 431.228 289.638 431.014C290.127 430.8 290.455 430.533 290.623 430.212V429.365ZM283.637 423.661C284.064 423.02 284.675 422.516 285.469 422.149C286.278 421.783 287.141 421.599 288.058 421.599C289.585 421.599 290.806 421.996 291.723 422.791C292.654 423.569 293.12 424.692 293.12 426.158V433.511H290.715V432.503C290.577 432.701 290.386 432.885 290.142 433.052C289.898 433.205 289.623 433.343 289.317 433.465C289.027 433.572 288.722 433.656 288.401 433.717C288.08 433.778 287.76 433.808 287.439 433.808C286.798 433.808 286.202 433.717 285.652 433.534C285.118 433.366 284.652 433.121 284.255 432.801C283.873 432.465 283.576 432.068 283.362 431.609C283.148 431.136 283.041 430.602 283.041 430.006C283.041 429.395 283.163 428.861 283.408 428.403C283.652 427.929 283.98 427.532 284.393 427.211C284.82 426.891 285.309 426.654 285.859 426.501C286.424 426.333 287.019 426.249 287.645 426.249C288.287 426.249 288.875 426.326 289.409 426.478C289.959 426.631 290.363 426.837 290.623 427.097V426.616C290.623 426.188 290.539 425.822 290.371 425.516C290.218 425.211 290.012 424.967 289.753 424.783C289.493 424.585 289.188 424.447 288.836 424.371C288.485 424.279 288.119 424.234 287.737 424.234C287.019 424.234 286.347 424.371 285.721 424.646C285.11 424.906 284.629 425.272 284.278 425.745L283.637 423.661Z" fill="#C7B07C"/>
<path d="M489.62 429.365C489.467 429.09 489.147 428.876 488.658 428.723C488.185 428.571 487.658 428.494 487.078 428.494C486.268 428.494 485.642 428.624 485.199 428.884C484.772 429.128 484.558 429.471 484.558 429.914C484.558 430.342 484.772 430.686 485.199 430.945C485.642 431.205 486.268 431.335 487.078 431.335C487.643 431.335 488.162 431.228 488.635 431.014C489.124 430.8 489.452 430.533 489.62 430.212V429.365ZM482.634 423.661C483.061 423.02 483.672 422.516 484.466 422.149C485.276 421.783 486.138 421.599 487.055 421.599C488.582 421.599 489.803 421.996 490.72 422.791C491.651 423.569 492.117 424.692 492.117 426.158V433.511H489.712V432.503C489.574 432.701 489.383 432.885 489.139 433.052C488.895 433.205 488.62 433.343 488.314 433.465C488.024 433.572 487.719 433.656 487.398 433.717C487.078 433.778 486.757 433.808 486.436 433.808C485.795 433.808 485.199 433.717 484.649 433.534C484.115 433.366 483.649 433.121 483.252 432.801C482.87 432.465 482.573 432.068 482.359 431.609C482.145 431.136 482.038 430.602 482.038 430.006C482.038 429.395 482.16 428.861 482.405 428.403C482.649 427.929 482.977 427.532 483.39 427.211C483.817 426.891 484.306 426.654 484.856 426.501C485.421 426.333 486.016 426.249 486.642 426.249C487.284 426.249 487.872 426.326 488.406 426.478C488.956 426.631 489.361 426.837 489.62 427.097V426.616C489.62 426.188 489.536 425.822 489.368 425.516C489.215 425.211 489.009 424.967 488.75 424.783C488.49 424.585 488.185 424.447 487.833 424.371C487.482 424.279 487.116 424.234 486.734 424.234C486.016 424.234 485.344 424.371 484.718 424.646C484.107 424.906 483.626 425.272 483.275 425.745L482.634 423.661Z" fill="#C7B07C"/>
<path d="M9.71846 9.04686C10.4667 9.04686 11.1616 9.14612 11.8029 9.34464C12.4443 9.52789 12.994 9.8104 13.4522 10.1922C13.9256 10.5739 14.2921 11.0473 14.5517 11.6124C14.8113 12.1774 14.9411 12.8264 14.9411 13.5594C14.9411 14.2924 14.8113 14.9109 14.5517 15.4148C14.3073 15.9187 13.9637 16.3539 13.5209 16.7204C14.1928 17.0564 14.7349 17.5527 15.1472 18.2094C15.5748 18.8507 15.7886 19.6753 15.7886 20.6832C15.7886 21.4468 15.6512 22.1263 15.3763 22.7219C15.1014 23.3174 14.7197 23.8214 14.231 24.2337C13.7576 24.646 13.2002 24.9591 12.5588 25.1728C11.9175 25.3866 11.2303 25.4935 10.4973 25.4935H5.57243V9.04686H9.71846ZM8.16083 18.4613V22.8135H11.047C11.6426 22.8135 12.1465 22.615 12.5588 22.2179C12.9864 21.8056 13.2002 21.2788 13.2002 20.6374C13.2002 20.3473 13.1468 20.0724 13.0399 19.8128C12.933 19.5532 12.7803 19.3241 12.5817 19.1256C12.3985 18.9271 12.1694 18.7667 11.8945 18.6446C11.6349 18.5224 11.3448 18.4613 11.0241 18.4613H8.16083ZM8.16083 11.7498V15.8729H10.2682C10.8638 15.8729 11.3601 15.6897 11.7571 15.3232C12.1694 14.9414 12.3756 14.4375 12.3756 13.8114C12.3756 13.2311 12.1771 12.7424 11.78 12.3454C11.3982 11.9483 10.8943 11.7498 10.2682 11.7498H8.16083Z" fill="#E3DAD2" fill-opacity="0.6"/>
<path d="M1.99284 224.509H4.67287L12.8733 236.557V224.509H15.4617V240.955H12.7817L4.58125 228.998V240.955H1.99284V224.509Z" fill="#CDB88D"/>
<path d="M13.4798 453.989C14.5946 453.989 15.6559 454.203 16.6638 454.63C17.6869 455.058 18.5726 455.653 19.3209 456.417C20.0845 457.165 20.6877 458.066 21.1305 459.12C21.5886 460.158 21.8177 461.288 21.8177 462.51C21.8177 463.732 21.5886 464.862 21.1305 465.9C20.6877 466.938 20.0845 467.839 19.3209 468.603C18.5726 469.367 17.6946 469.962 16.6867 470.39C15.6788 470.817 14.6175 471.031 13.5027 471.031C12.3727 471.031 11.3037 470.817 10.2959 470.39C9.28799 469.947 8.40228 469.351 7.63874 468.603C6.8752 467.839 6.26437 466.938 5.80624 465.9C5.36339 464.862 5.14196 463.739 5.14196 462.533C5.14196 461.311 5.36339 460.181 5.80624 459.143C6.26437 458.104 6.86757 457.203 7.61584 456.44C8.37938 455.676 9.26508 455.081 10.273 454.653C11.2808 454.21 12.3498 453.989 13.4798 453.989ZM13.5027 456.783C12.6934 456.783 11.9375 456.928 11.235 457.219C10.5478 457.493 9.94464 457.883 9.42543 458.387C8.90622 458.891 8.50154 459.502 8.2114 460.219C7.92125 460.922 7.77618 461.693 7.77618 462.533C7.77618 463.388 7.92125 464.167 8.2114 464.869C8.50154 465.556 8.90622 466.152 9.42543 466.656C9.94464 467.16 10.5478 467.549 11.235 467.824C11.9375 468.099 12.6934 468.236 13.5027 468.236C14.2968 468.236 15.0375 468.099 15.7246 467.824C16.4271 467.549 17.0303 467.16 17.5342 466.656C18.0534 466.152 18.4581 465.549 18.7483 464.846C19.0384 464.144 19.1835 463.365 19.1835 462.51C19.1835 461.67 19.0384 460.899 18.7483 460.196C18.4581 459.494 18.0534 458.891 17.5342 458.387C17.0303 457.883 16.4271 457.493 15.7246 457.219C15.0375 456.928 14.2968 456.783 13.5027 456.783Z" fill="#CDB88D"/>
<path d="M394.983 458.582H397.686L399.885 475.028H397.296L395.739 463.461L391.57 475.028H389.119L384.904 463.461L383.392 475.028H380.689L382.888 458.582H385.591L390.264 471.088L394.983 458.582Z" fill="#CDB88D"/>
<path d="M745.088 435.658H742.362L740.942 432.085H733.795L732.398 435.658H729.603L736.017 419.212H738.651L745.088 435.658ZM734.872 429.336H739.865L737.368 422.945L734.872 429.336Z" fill="#CDB88D"/>
<path d="M344.63 9.04686H357.206V11.7956H352.212V25.4935H349.624V11.7956H344.63V9.04686Z" fill="#CDB88D"/>
</svg>
