<svg width="809" height="321" viewBox="0 0 809 321" fill="none" xmlns="http://www.w3.org/2000/svg">
<rect x="0.891952" y="36.8163" width="807.216" height="272.045" fill="#D4E6DB" stroke="#13552D" stroke-width="1.7839"/>
<rect x="0.891952" y="1.13805" width="807.216" height="46.3815" fill="#13552D" stroke="#13552D" stroke-width="1.7839"/>
<path d="M296.68 74.1032C297.456 74.8259 298.055 75.5487 298.478 76.2714C298.919 76.9766 299.139 77.8051 299.139 78.757C299.139 79.4798 299.016 80.1408 298.769 80.7402C298.522 81.3396 298.17 81.8508 297.712 82.2738C297.253 82.6969 296.698 83.0319 296.046 83.2787C295.411 83.5078 294.697 83.6224 293.904 83.6224C293.234 83.6224 292.591 83.5255 291.974 83.3315C291.357 83.12 290.801 82.8644 290.308 82.5647C289.832 82.2474 289.417 81.9037 289.065 81.5335C288.73 81.1456 288.501 80.7666 288.377 80.3964L288.986 78.281C289.603 79.2859 290.334 80.0615 291.18 80.608C292.044 81.1368 293.031 81.4012 294.142 81.4012C295.111 81.4012 295.843 81.1633 296.337 80.6873C296.83 80.1937 297.077 79.5767 297.077 78.8363C297.077 78.237 296.909 77.6993 296.575 77.2234C296.24 76.7474 295.843 76.3155 295.385 75.9277C294.168 74.9229 293.199 74.112 292.476 73.495C291.771 72.8604 291.216 72.3403 290.81 71.9349C290.158 71.265 289.691 70.648 289.409 70.0839C289.144 69.5198 289.012 68.9028 289.012 68.2329C289.012 66.9637 289.435 65.9501 290.281 65.1921C291.127 64.4341 292.256 64.055 293.666 64.055C294.688 64.055 295.623 64.3107 296.469 64.8219C297.315 65.3155 297.941 65.9236 298.346 66.6464L297.844 68.7618C297.333 68.0567 296.716 67.4661 295.993 66.9902C295.288 66.5142 294.486 66.2762 293.587 66.2762C292.846 66.2762 292.238 66.4437 291.762 66.7786C291.304 67.1135 291.075 67.6248 291.075 68.3123C291.075 68.5767 291.127 68.8323 291.233 69.0791C291.339 69.3083 291.471 69.5286 291.63 69.7402C291.806 69.9517 291.982 70.1456 292.159 70.3219C292.353 70.4982 292.529 70.648 292.688 70.7714C293.463 71.406 294.089 71.9172 294.565 72.3051C295.041 72.6929 295.411 73.0014 295.676 73.2306C295.958 73.4597 296.169 73.636 296.31 73.7594C296.451 73.8828 296.575 73.9974 296.68 74.1032ZM309.159 74.0503V72.0142H319.816V74.0503H309.159ZM309.159 79.1536V77.1176H319.816V79.1536H309.159ZM330.914 88.9638V70.3219H332.818V71.882C332.924 71.6528 333.1 71.4237 333.347 71.1945C333.611 70.9653 333.929 70.7714 334.299 70.6128C334.687 70.4365 335.11 70.2954 335.568 70.1897C336.044 70.0839 336.547 70.031 337.075 70.031C337.957 70.031 338.794 70.1985 339.587 70.5334C340.381 70.8684 341.077 71.3355 341.676 71.9349C342.293 72.5342 342.778 73.2482 343.131 74.0767C343.501 74.9052 343.686 75.8219 343.686 76.8267C343.686 77.8315 343.501 78.7482 343.131 79.5767C342.778 80.4053 342.293 81.1192 341.676 81.7186C341.077 82.3179 340.381 82.7851 339.587 83.12C338.794 83.4549 337.957 83.6224 337.075 83.6224C336.018 83.6224 335.101 83.4373 334.325 83.0671C333.567 82.6793 333.083 82.2474 332.871 81.7714V88.9638H330.914ZM341.359 78.7835C341.606 78.2017 341.729 77.5495 341.729 76.8267C341.729 76.104 341.606 75.4605 341.359 74.8964C341.13 74.3147 340.804 73.8211 340.381 73.4156C339.975 73.0102 339.482 72.7017 338.9 72.4902C338.318 72.261 337.684 72.1464 336.996 72.1464C335.991 72.1464 335.101 72.3668 334.325 72.8075C333.567 73.2306 333.083 73.8387 332.871 74.632V79.0214C333.083 79.8147 333.567 80.4317 334.325 80.8724C335.101 81.2955 335.991 81.507 336.996 81.507C337.684 81.507 338.318 81.4012 338.9 81.1897C339.482 80.9605 339.975 80.6432 340.381 80.2378C340.804 79.8323 341.13 79.3476 341.359 78.7835ZM347.233 70.3219H349.19V83.3315H347.233V70.3219ZM347.101 67.1224C346.801 66.8227 346.651 66.4525 346.651 66.0118C346.651 65.5711 346.801 65.2009 347.101 64.9012C347.4 64.6015 347.771 64.4517 348.211 64.4517C348.652 64.4517 349.022 64.6015 349.322 64.9012C349.622 65.2009 349.771 65.5711 349.771 66.0118C349.771 66.4525 349.622 66.8227 349.322 67.1224C349.022 67.422 348.652 67.5719 348.211 67.5719C347.771 67.5719 347.4 67.422 347.101 67.1224ZM359.998 70.507L362.563 74.0238L361.03 75.1344L358.465 71.5911L355.9 75.1344L354.393 74.0238L356.958 70.4805L352.806 69.132L353.388 67.3603L357.539 68.7089V64.3459H359.417V68.7089L363.568 67.3603L364.15 69.1584L359.998 70.507ZM367.484 64.3459H372.587C373.292 64.3459 373.988 64.4517 374.676 64.6632C375.363 64.8748 375.98 65.2009 376.527 65.6416C377.073 66.0647 377.505 66.6111 377.822 67.281C378.157 67.9333 378.325 68.7089 378.325 69.6079C378.325 70.3307 378.21 70.983 377.981 71.5647C377.77 72.1464 377.47 72.6576 377.082 73.0983C376.712 73.539 376.262 73.9092 375.734 74.2089C375.205 74.491 374.632 74.6937 374.015 74.8171L378.722 83.3315H376.289L371.741 75.0551H369.546V83.3315H367.484V64.3459ZM369.546 66.5406V72.8604H372.772C373.23 72.8604 373.671 72.7898 374.094 72.6488C374.517 72.5078 374.887 72.3051 375.205 72.0406C375.522 71.7762 375.769 71.4501 375.945 71.0623C376.139 70.6745 376.236 70.2249 376.236 69.7137C376.236 68.797 375.954 68.039 375.39 67.4397C374.826 66.8403 374.085 66.5406 373.169 66.5406H369.546ZM387.332 73.5214V75.3988H380.721V73.9181L383.788 70.6656C384.3 70.1192 384.687 69.6608 384.952 69.2906C385.216 68.9204 385.348 68.5062 385.348 68.0478C385.348 67.66 385.207 67.3339 384.925 67.0695C384.643 66.8051 384.255 66.6728 383.762 66.6728C383.251 66.6728 382.81 66.8139 382.44 67.0959C382.087 67.3603 381.788 67.66 381.541 67.995L380.8 66.8051C380.888 66.5759 381.021 66.3379 381.197 66.0911C381.391 65.8443 381.62 65.624 381.884 65.43C382.149 65.2361 382.449 65.0775 382.784 64.9541C383.118 64.8307 383.48 64.769 383.868 64.769C384.414 64.769 384.89 64.8571 385.296 65.0334C385.701 65.1921 386.036 65.4124 386.3 65.6945C386.565 65.9765 386.759 66.3026 386.882 66.6728C387.023 67.043 387.094 67.422 387.094 67.8099C387.094 68.5503 386.909 69.2378 386.538 69.8724C386.168 70.4894 385.648 71.1504 384.978 71.8555L383.365 73.5214H387.332Z" fill="#13552D"/>
<path d="M111.505 93.951H119.755V169.894H111.505V93.951Z" fill="#13552D"/>
<path d="M227.904 273.058C223.391 275.032 218.631 276.019 213.625 276.019C208.618 276.019 203.859 275.032 199.346 273.058C194.833 271.013 190.849 268.263 187.394 264.808C184.009 261.282 181.294 257.157 179.25 252.433C177.275 247.638 176.288 242.455 176.288 236.885C176.288 231.314 177.275 226.167 179.25 221.442C181.294 216.647 184.009 212.522 187.394 209.067C190.849 205.542 194.833 202.792 199.346 200.817C203.859 198.772 208.618 197.75 213.625 197.75C218.631 197.75 223.391 198.772 227.904 200.817C232.416 202.792 236.365 205.542 239.75 209.067C243.205 212.522 245.92 216.647 247.894 221.442C249.939 226.167 250.961 231.314 250.961 236.885C250.961 242.455 249.939 247.638 247.894 252.433C245.92 257.157 243.205 261.282 239.75 264.808C236.365 268.263 232.416 271.013 227.904 273.058ZM225.048 208.962C221.522 207.41 217.714 206.635 213.625 206.635C209.535 206.635 205.692 207.41 202.096 208.962C198.57 210.442 195.503 212.522 192.894 215.202C190.285 217.881 188.24 221.09 186.759 224.827C185.278 228.494 184.538 232.513 184.538 236.885C184.538 241.257 185.278 245.311 186.759 249.048C188.24 252.715 190.285 255.888 192.894 258.567C195.503 261.247 198.57 263.362 202.096 264.914C205.692 266.394 209.535 267.135 213.625 267.135C217.714 267.135 221.522 266.394 225.048 264.914C228.644 263.362 231.747 261.247 234.355 258.567C236.964 255.888 239.009 252.715 240.49 249.048C241.971 245.311 242.711 241.257 242.711 236.885C242.711 232.513 241.971 228.494 240.49 224.827C239.009 221.09 236.964 217.881 234.355 215.202C231.747 212.522 228.644 210.442 225.048 208.962Z" fill="#13552D"/>
<rect x="296.787" y="104.208" width="68.7502" height="52.1382" rx="26.0691" stroke="#13552D" stroke-width="9.25483"/>
<path d="M206.857 127.623V110.065H214.366V127.623H231.924V135.767H214.366V153.325H206.857V135.767H189.299V127.623H206.857Z" fill="#13552D"/>
<path d="M333.117 235.225V217.668H340.627V235.225H358.185V243.37H340.627V260.927H333.117V243.37H315.56V235.225H333.117Z" fill="#13552D"/>
<path d="M429.924 125.507V117.363H472.549V125.507H429.924ZM429.924 145.921V137.777H472.549V145.921H429.924Z" fill="#13552D"/>
<path d="M554.863 233.11V224.966H597.488V233.11H554.863ZM554.863 253.524V245.379H597.488V253.524H554.863Z" fill="#13552D"/>
<path d="M570.333 171.163V161.961C565.609 161.82 561.202 161.009 557.112 159.528C553.093 157.977 549.603 155.897 546.641 153.288C543.679 150.608 541.352 147.4 539.66 143.663C538.038 139.926 537.227 135.765 537.227 131.182C537.227 126.599 538.038 122.474 539.66 118.807C541.352 115.07 543.679 111.897 546.641 109.288C549.603 106.608 553.093 104.528 557.112 103.047C561.202 101.496 565.609 100.65 570.333 100.509V92.2587H578.583V100.509C583.308 100.65 587.68 101.496 591.699 103.047C595.789 104.528 599.314 106.608 602.276 109.288C605.237 111.897 607.529 115.07 609.151 118.807C610.843 122.474 611.689 126.599 611.689 131.182C611.689 135.765 610.843 139.926 609.151 143.663C607.529 147.4 605.237 150.608 602.276 153.288C599.314 155.897 595.789 157.977 591.699 159.528C587.68 161.009 583.308 161.82 578.583 161.961V171.163H570.333ZM603.439 131.182C603.439 127.797 602.805 124.765 601.535 122.086C600.266 119.406 598.503 117.15 596.247 115.316C594.061 113.483 591.452 112.073 588.42 111.086C585.388 110.099 582.109 109.57 578.583 109.499V152.97C582.109 152.9 585.388 152.371 588.42 151.384C591.452 150.397 594.061 148.986 596.247 147.153C598.503 145.32 600.266 143.063 601.535 140.384C602.805 137.704 603.439 134.637 603.439 131.182ZM545.477 131.182C545.477 134.637 546.112 137.704 547.381 140.384C548.651 143.063 550.378 145.32 552.564 147.153C554.82 148.986 557.465 150.397 560.497 151.384C563.529 152.371 566.808 152.9 570.333 152.97V109.499C566.808 109.57 563.529 110.099 560.497 111.086C557.465 112.073 554.82 113.483 552.564 115.316C550.378 117.15 548.651 119.406 547.381 122.086C546.112 124.765 545.477 127.797 545.477 131.182Z" fill="#13552D"/>
<path d="M467.07 199.262C464.871 216.828 459.979 252.948 458 256.9C456.021 260.852 452.778 261.291 451.404 261.017L448.105 261.84C450.579 256.351 453.547 248.007 452.228 245.372C452.224 245.364 452.22 245.356 452.216 245.348C446.835 245.308 437.767 247.241 434.913 248.666C431.614 250.313 434.913 237.138 439.035 237.962C440.607 237.687 445.611 236.809 453.053 235.492C453.053 223.415 455.856 199.262 467.07 199.262Z" fill="#13552D"/>
<path d="M462.947 244.549L464.596 233.845L495.105 230.551C495.105 242.079 474.491 244 462.947 244.549Z" fill="#13552D"/>
<ellipse cx="456.351" cy="238.785" rx="1.64909" ry="1.6468" fill="#13552D"/>
<ellipse cx="429.141" cy="239.609" rx="10.7191" ry="10.7042" fill="#13552D"/>
<ellipse cx="457.176" cy="267.604" rx="10.7191" ry="10.7042" fill="#13552D"/>
<ellipse cx="429.14" cy="239.609" rx="5.77183" ry="5.7638" fill="#D4E6DB"/>
<ellipse cx="457.176" cy="267.604" rx="5.77183" ry="5.7638" fill="#D4E6DB"/>
<path d="M737.626 261.915C736.826 268.675 735.319 282.611 735.693 284.268C736.067 285.926 737.237 286.388 737.776 286.412L738.931 287.023C738.514 284.746 738.176 281.358 738.912 280.496C738.914 280.493 738.916 280.49 738.919 280.488C740.931 280.968 744.138 282.524 745.073 283.319C746.152 284.237 746.136 279.015 744.521 278.943C743.96 278.696 742.173 277.908 739.516 276.731C740.631 272.222 741.813 262.947 737.626 261.915Z" fill="#13552D"/>
<path d="M734.986 279.202L735.359 275.054L724.273 271.016C723.209 275.32 730.727 277.935 734.986 279.202Z" fill="#13552D"/>
<ellipse rx="0.63411" ry="0.633329" transform="matrix(-0.970933 -0.239353 -0.239982 0.970777 737.981 277.658)" fill="#13552D"/>
<ellipse rx="4.12172" ry="4.11664" transform="matrix(-0.970933 -0.239353 -0.239982 0.970777 748.064 280.469)" fill="#13552D"/>
<ellipse rx="4.12172" ry="4.11664" transform="matrix(-0.970933 -0.239353 -0.239982 0.970777 735.013 288.341)" fill="#13552D"/>
<ellipse rx="2.21939" ry="2.21665" transform="matrix(-0.970933 -0.239353 -0.239982 0.970777 748.063 280.469)" fill="#D4E6DB"/>
<ellipse rx="2.21939" ry="2.21665" transform="matrix(-0.970933 -0.239353 -0.239982 0.970777 735.013 288.341)" fill="#D4E6DB"/>
<path d="M727.532 261.106C726.616 263.08 725.241 264.984 723.407 266.817C721.574 268.58 719.388 270.167 716.85 271.577C714.382 272.917 711.597 274.01 708.494 274.856C705.391 275.632 702.148 276.019 698.763 276.019C693.827 276.019 689.138 275.103 684.696 273.269C680.324 271.436 676.446 268.827 673.061 265.442C669.747 261.987 667.103 257.862 665.128 253.067C663.154 248.202 662.167 242.808 662.167 236.885C662.167 230.962 663.154 225.603 665.128 220.808C667.103 215.942 669.747 211.817 673.061 208.433C676.446 204.978 680.324 202.333 684.696 200.5C689.138 198.667 693.827 197.75 698.763 197.75C702.148 197.75 705.356 198.173 708.388 199.019C711.42 199.865 714.17 200.994 716.638 202.404C719.177 203.744 721.327 205.295 723.09 207.058C724.853 208.821 726.157 210.583 727.004 212.346L724.571 219.856C721.75 215.766 718.154 212.558 713.782 210.231C709.481 207.833 704.545 206.635 698.975 206.635C694.744 206.635 690.866 207.375 687.34 208.856C683.814 210.266 680.782 212.311 678.244 214.99C675.776 217.599 673.837 220.772 672.427 224.51C671.087 228.176 670.417 232.301 670.417 236.885C670.417 241.468 671.087 245.628 672.427 249.366C673.837 253.032 675.776 256.205 678.244 258.885C680.782 261.494 683.814 263.539 687.34 265.019C690.866 266.43 694.744 267.135 698.975 267.135C704.827 267.135 709.975 265.866 714.417 263.327C718.93 260.789 722.491 257.616 725.1 253.808L727.532 261.106Z" fill="#13552D"/>
<path d="M730.795 205.067L723.07 229.34" stroke="#13552D" stroke-width="1.32212" stroke-dasharray="1.32 1.32"/>
<path d="M731.617 268.898L723.303 244.82" stroke="#13552D" stroke-width="1.32212" stroke-dasharray="1.32 1.32"/>
<line x1="116.978" y1="84.066" x2="134.165" y2="84.066" stroke="#13552D" stroke-width="1.98318"/>
<line x1="133.174" y1="83.0769" x2="133.174" y2="130.607" stroke="#13552D" stroke-width="1.98318"/>
<rect x="129.539" y="84.3981" width="3.3053" height="3.29886" stroke="#13552D" stroke-width="1.32212"/>
<path d="M55.7642 228.456H57.7209V247.707H55.7642V228.456ZM68.8181 238.425V236.389H79.4743V238.425H68.8181ZM68.8181 243.529V241.493H79.4743V243.529H68.8181ZM100.225 245.512V247.707H89.727V245.829L94.6717 239.932C95.5531 238.875 96.267 237.87 96.8135 236.918C97.36 235.966 97.6332 234.979 97.6332 233.957C97.6332 233.498 97.5627 233.066 97.4217 232.661C97.2807 232.255 97.0779 231.903 96.8135 231.603C96.5491 231.303 96.223 231.074 95.8352 230.916C95.465 230.739 95.0419 230.651 94.5659 230.651C94.0371 230.651 93.5611 230.731 93.138 230.889C92.7326 231.03 92.3624 231.224 92.0274 231.471C91.7101 231.718 91.4369 231.991 91.2077 232.291C90.9786 232.59 90.7847 232.881 90.626 233.163L89.6741 231.577C89.8151 231.154 90.0355 230.757 90.3351 230.387C90.6348 229.999 90.9962 229.664 91.4193 229.382C91.8424 229.082 92.3183 228.853 92.8472 228.694C93.376 228.518 93.9489 228.43 94.5659 228.43C95.3768 228.43 96.0996 228.571 96.7342 228.853C97.3688 229.135 97.9065 229.523 98.3472 230.017C98.7879 230.493 99.114 231.057 99.3255 231.709C99.5547 232.344 99.6693 233.013 99.6693 233.719C99.6693 234.406 99.59 235.058 99.4313 235.675C99.2727 236.275 99.0347 236.883 98.7174 237.5C98.4177 238.099 98.0387 238.716 97.5803 239.351C97.122 239.968 96.602 240.629 96.0202 241.334L92.5299 245.512H100.225ZM110 234.882L112.565 238.399L111.031 239.509L108.466 235.966L105.901 239.509L104.394 238.399L106.959 234.856L102.807 233.507L103.389 231.735L107.54 233.084V228.721H109.418V233.084L113.569 231.735L114.151 233.533L110 234.882ZM117.3 253.339V234.697H119.203V236.257C119.309 236.028 119.485 235.799 119.732 235.569C119.997 235.34 120.314 235.146 120.684 234.988C121.072 234.811 121.495 234.67 121.953 234.565C122.429 234.459 122.932 234.406 123.461 234.406C124.342 234.406 125.179 234.573 125.973 234.908C126.766 235.243 127.462 235.711 128.062 236.31C128.679 236.909 129.163 237.623 129.516 238.452C129.886 239.28 130.071 240.197 130.071 241.202C130.071 242.207 129.886 243.123 129.516 243.952C129.163 244.78 128.679 245.494 128.062 246.094C127.462 246.693 126.766 247.16 125.973 247.495C125.179 247.83 124.342 247.997 123.461 247.997C122.403 247.997 121.486 247.812 120.711 247.442C119.953 247.054 119.468 246.622 119.256 246.146V253.339H117.3ZM127.744 243.158C127.991 242.577 128.114 241.924 128.114 241.202C128.114 240.479 127.991 239.836 127.744 239.271C127.515 238.69 127.189 238.196 126.766 237.791C126.36 237.385 125.867 237.077 125.285 236.865C124.703 236.636 124.069 236.521 123.381 236.521C122.376 236.521 121.486 236.742 120.711 237.182C119.953 237.606 119.468 238.214 119.256 239.007V243.396C119.468 244.19 119.953 244.807 120.711 245.247C121.486 245.67 122.376 245.882 123.381 245.882C124.069 245.882 124.703 245.776 125.285 245.565C125.867 245.336 126.36 245.018 126.766 244.613C127.189 244.207 127.515 243.723 127.744 243.158ZM133.618 234.697H135.575V247.707H133.618V234.697ZM133.486 231.497C133.186 231.198 133.036 230.827 133.036 230.387C133.036 229.946 133.186 229.576 133.486 229.276C133.786 228.977 134.156 228.827 134.597 228.827C135.037 228.827 135.407 228.977 135.707 229.276C136.007 229.576 136.157 229.946 136.157 230.387C136.157 230.827 136.007 231.198 135.707 231.497C135.407 231.797 135.037 231.947 134.597 231.947C134.156 231.947 133.786 231.797 133.486 231.497ZM146.384 234.882L148.949 238.399L147.415 239.509L144.85 235.966L142.285 239.509L140.778 238.399L143.343 234.856L139.191 233.507L139.773 231.735L143.925 233.084V228.721H145.802V233.084L149.953 231.735L150.535 233.533L146.384 234.882ZM153.869 228.721H158.972C159.677 228.721 160.374 228.827 161.061 229.038C161.749 229.25 162.366 229.576 162.912 230.017C163.459 230.44 163.89 230.986 164.208 231.656C164.543 232.308 164.71 233.084 164.71 233.983C164.71 234.706 164.596 235.358 164.366 235.94C164.155 236.521 163.855 237.033 163.467 237.473C163.097 237.914 162.648 238.284 162.119 238.584C161.59 238.866 161.017 239.069 160.4 239.192L165.107 247.707H162.674L158.126 239.43H155.931V247.707H153.869V228.721ZM155.931 230.916V237.235H159.157C159.616 237.235 160.056 237.165 160.479 237.024C160.902 236.883 161.273 236.68 161.59 236.416C161.907 236.151 162.154 235.825 162.33 235.437C162.524 235.049 162.621 234.6 162.621 234.089C162.621 233.172 162.339 232.414 161.775 231.815C161.211 231.215 160.471 230.916 159.554 230.916H155.931Z" fill="#13552D"/>
</svg>
