<svg width="525" height="502" viewBox="0 0 525 502" fill="none" xmlns="http://www.w3.org/2000/svg">
<path fill-rule="evenodd" clip-rule="evenodd" d="M0 501.348V479.793H35.5538C46.9611 479.793 57.8499 477.719 68.2202 473.571C78.5905 469.423 87.4053 463.719 94.6645 456.46C101.924 449.201 107.627 440.386 111.775 430.016C116.442 419.645 118.775 408.497 118.775 396.572C118.775 385.683 116.701 375.312 112.553 365.461C108.405 355.09 102.701 346.016 95.4423 338.239C88.1831 330.461 79.3683 324.239 68.998 319.572C58.6277 314.905 47.2204 312.572 34.776 312.572H0V234.017H10.6651C33.9982 234.017 53.1833 227.276 68.2202 213.795C83.2571 199.795 90.7756 180.869 90.7756 157.018C90.7756 134.203 83.5164 115.536 68.998 101.018C54.4796 85.981 35.0353 78.4626 10.6651 78.4626H0V0C22.5745 0.58287 43.2405 3.92241 61.998 10.0186C83.2571 16.7593 101.405 26.6111 116.442 39.574C131.479 52.0183 143.146 67.833 151.442 87.0181C159.738 106.203 163.886 128.24 163.886 153.129C163.886 178.017 159.479 199.277 150.664 216.906C141.849 234.017 129.923 248.535 114.887 260.461C137.701 271.35 156.368 287.943 170.886 310.239C185.405 332.535 192.664 360.794 192.664 395.016C192.664 421.46 188.256 444.793 179.442 465.015C173.905 478.512 166.751 490.623 157.98 501.348H0Z" fill="#13552D"/>
<path fill-rule="evenodd" clip-rule="evenodd" d="M250.256 220.858V370.968H454.032V220.858H524.809V501.348H454.032V446.412H250.256V501.348H179.479V220.858H250.256Z" fill="#13552D"/>
<path fill-rule="evenodd" clip-rule="evenodd" d="M0 268.722H197.887V501.348H157.27V312.364L8.69632e-05 312.348L0 268.722Z" fill="#136B35"/>
<path d="M204.495 346.749V349.487H197.443V346.998H201.702V332.618H197.443V330.129H204.495V331.705C205.546 332.314 206.625 332.876 207.731 333.392C208.855 333.927 210.035 334.378 211.27 334.747C212.524 335.134 213.852 335.429 215.253 335.632C216.672 335.853 218.212 335.964 219.871 335.964H221.558V346.749H204.495ZM204.495 344.15H218.765V338.508C217.474 338.508 216.165 338.407 214.838 338.204C213.529 338.001 212.248 337.725 210.994 337.374C209.759 337.042 208.579 336.646 207.454 336.185C206.348 335.743 205.362 335.263 204.495 334.747V344.15ZM215.502 355.661H205.85L215.502 363.017V365.534H201.702V363.017H211.353L201.702 355.661V353.145H215.502V355.661ZM204.053 373.977C204.053 374.954 204.228 375.691 204.578 376.189C204.928 376.705 205.343 376.963 205.823 376.963C206.32 376.963 206.717 376.742 207.012 376.3C207.325 375.876 207.482 375.249 207.482 374.419V372.594H210.164V374.17C210.164 374.889 210.284 375.442 210.524 375.83C210.782 376.217 211.178 376.41 211.713 376.41C212.137 376.41 212.478 376.198 212.736 375.774C213.013 375.369 213.151 374.816 213.151 374.115C213.151 373.47 213.031 372.824 212.791 372.179C212.552 371.534 212.137 370.898 211.547 370.271L213.566 369.607C214.211 370.087 214.746 370.723 215.17 371.515C215.612 372.327 215.833 373.267 215.833 374.336C215.833 375.018 215.741 375.645 215.557 376.217C215.373 376.788 215.114 377.277 214.783 377.682C214.451 378.088 214.045 378.401 213.566 378.623C213.105 378.862 212.579 378.982 211.989 378.982C211.307 378.982 210.708 378.835 210.192 378.54C209.676 378.263 209.298 377.876 209.058 377.378C208.468 378.853 207.316 379.591 205.601 379.591C204.956 379.591 204.375 379.443 203.859 379.148C203.343 378.853 202.9 378.447 202.532 377.931C202.163 377.433 201.877 376.853 201.674 376.189C201.472 375.525 201.37 374.834 201.37 374.115C201.37 373.009 201.573 372.032 201.979 371.184C202.384 370.354 202.965 369.672 203.721 369.137L205.767 369.801C204.624 370.741 204.053 372.133 204.053 373.977ZM206.597 391.553C206.984 391.332 207.27 390.89 207.454 390.226C207.657 389.562 207.758 388.852 207.758 388.097C207.758 387.046 207.592 386.225 207.261 385.635C206.947 385.064 206.496 384.778 205.906 384.778C205.352 384.778 204.901 385.055 204.551 385.608C204.219 386.179 204.053 387.009 204.053 388.097C204.053 388.465 204.09 388.825 204.163 389.175C204.237 389.544 204.339 389.885 204.468 390.198C204.597 390.512 204.753 390.788 204.938 391.028C205.122 391.268 205.325 391.443 205.546 391.553H206.597ZM213.427 383.008C214.147 383.524 214.727 384.234 215.17 385.138C215.612 386.041 215.833 387.046 215.833 388.152C215.833 389.995 215.354 391.443 214.395 392.494C213.455 393.544 212.128 394.07 210.413 394.07H201.702V391.636H202.919C202.679 391.47 202.467 391.24 202.283 390.945C202.099 390.65 201.933 390.318 201.785 389.949C201.656 389.599 201.555 389.23 201.481 388.843C201.407 388.456 201.37 388.069 201.37 387.682C201.37 386.041 201.757 384.723 202.532 383.727C203.325 382.75 204.431 382.262 205.85 382.262C206.569 382.262 207.205 382.4 207.758 382.676C208.311 382.971 208.782 383.368 209.169 383.865C209.556 384.363 209.842 384.944 210.026 385.608C210.229 386.271 210.33 386.99 210.33 387.765C210.33 388.078 210.303 388.41 210.247 388.76C210.21 389.129 210.146 389.479 210.054 389.811C209.962 390.161 209.842 390.484 209.694 390.779C209.565 391.074 209.399 391.332 209.196 391.553H209.86C210.432 391.553 210.92 391.452 211.326 391.249C211.75 391.046 212.091 390.779 212.349 390.447C212.626 390.115 212.828 389.719 212.957 389.258C213.086 388.816 213.151 388.345 213.151 387.848C213.151 386.963 212.976 386.161 212.626 385.442C212.275 384.723 211.814 384.151 211.243 383.727L213.427 383.008ZM215.502 400.977H205.85L215.502 408.333V410.85H201.702V408.333H211.353L201.702 400.977V398.461H215.502V400.977ZM221.032 409.08C220.442 409.08 219.899 408.96 219.401 408.72C218.921 408.499 218.507 408.186 218.156 407.78C217.806 407.393 217.53 406.923 217.327 406.37C217.124 405.835 217.023 405.264 217.023 404.655C217.023 404.047 217.124 403.466 217.327 402.913C217.53 402.378 217.806 401.908 218.156 401.503C218.507 401.116 218.921 400.802 219.401 400.562C219.899 400.341 220.442 400.231 221.032 400.231L221.392 402.415C220.913 402.452 220.479 402.664 220.092 403.051C219.723 403.439 219.539 403.973 219.539 404.655C219.539 405.337 219.723 405.872 220.092 406.259C220.479 406.646 220.913 406.858 221.392 406.895L221.032 409.08ZM215.502 417.91H210.164V425.155H215.502V427.672H201.702V425.155H207.482V417.91H201.702V415.394H215.502V417.91Z" fill="#136B35"/>
</svg>
