<svg width="334" height="436" viewBox="0 0 334 436" fill="none" xmlns="http://www.w3.org/2000/svg">
<path fill-rule="evenodd" clip-rule="evenodd" d="M329.088 121H334V124H329.088V121ZM309.441 121H319.265V124H309.441V121ZM289.794 121H299.618V124H289.794V121ZM270.147 121L279.971 121V124L270.147 124V121ZM250.5 121H260.324V124H250.5V121ZM230.853 121H240.676V124H230.853V121ZM211.206 121H221.029V124H211.206V121ZM191.559 121H201.382V124H191.559V121ZM171.912 121H181.735V124H171.912V121ZM152.265 121L162.088 121V124L152.265 124V121ZM132.618 121H142.441V124H132.618V121ZM112.971 121H122.794V124H112.971V121ZM93.3235 121H103.147V124H93.3235V121ZM73.6764 121H83.5V124H73.6764V121ZM54.0294 121H63.8529V124H54.0294V121ZM34.3824 121L44.2059 121V124L34.3824 124V121ZM14.7353 121H24.5588V124H14.7353V121ZM0 121H4.9118V124H0V121Z" fill="#D4E6DB"/>
<path fill-rule="evenodd" clip-rule="evenodd" d="M277 249.115L277 254L274 254L274 249.115L277 249.115ZM277 229.577L277 239.346L274 239.346L274 229.577L277 229.577ZM277 210.038L277 219.808L274 219.808L274 210.038L277 210.038ZM277 190.5L277 200.269L274 200.269L274 190.5L277 190.5ZM277 170.962L277 180.731L274 180.731L274 170.962L277 170.962ZM277 151.423L277 161.192L274 161.192L274 151.423L277 151.423ZM277 131.885L277 141.654L274 141.654L274 131.885L277 131.885ZM277 112.346L277 122.115L274 122.115L274 112.346L277 112.346ZM277 92.8077L277 102.577L274 102.577L274 92.8077L277 92.8077ZM277 73.2692L277 83.0385L274 83.0385L274 73.2692L277 73.2692ZM277 53.7308L277 63.5L274 63.5L274 53.7308L277 53.7308ZM277 34.1923L277 43.9616L274 43.9616L274 34.1923L277 34.1923ZM277 14.6539L277 24.4231L274 24.4231L274 14.6539L277 14.6539ZM277 1.31134e-07L277 4.88466L274 4.88466L274 0L277 1.31134e-07Z" fill="#D4E6DB"/>
<path fill-rule="evenodd" clip-rule="evenodd" d="M54 249.115L54 254L51 254L51 249.115L54 249.115ZM54 229.577L54 239.346L51 239.346L51 229.577L54 229.577ZM54 210.038L54 219.808L51 219.808L51 210.038L54 210.038ZM54 190.5L54 200.269L51 200.269L51 190.5L54 190.5ZM54 170.962L54 180.731L51 180.731L51 170.962L54 170.962ZM54 151.423L54 161.192L51 161.192L51 151.423L54 151.423ZM54 131.885L54 141.654L51 141.654L51 131.885L54 131.885ZM54 112.346L54 122.115L51 122.115L51 112.346L54 112.346ZM54 92.8077L54 102.577L51 102.577L51 92.8077L54 92.8077ZM54 73.2692L54 83.0385L51 83.0385L51 73.2692L54 73.2692ZM54 53.7308L54 63.5L51 63.5L51 53.7308L54 53.7308ZM54 34.1923L54 43.9616L51 43.9616L51 34.1923L54 34.1923ZM54 14.6539L54 24.4231L51 24.4231L51 14.6539L54 14.6539ZM54 1.31134e-07L54 4.88466L51 4.88466L51 0L54 1.31134e-07Z" fill="#D4E6DB"/>
<path fill-rule="evenodd" clip-rule="evenodd" d="M175 318.938L175 324L172 324L172 318.938L175 318.938ZM175 298.688L175 308.813L172 308.812L172 298.688L175 298.688ZM175 278.438L175 288.563L172 288.562L172 278.438L175 278.438ZM175 258.188L175 268.313L172 268.312L172 258.188L175 258.188ZM175 237.938L175 248.063L172 248.062L172 237.938L175 237.938ZM175 217.688L175 227.813L172 227.812L172 217.688L175 217.688ZM175 197.438L175 207.563L172 207.562L172 197.438L175 197.438ZM175 177.188L175 187.313L172 187.312L172 177.188L175 177.188ZM175 156.938L175 167.063L172 167.062L172 156.938L175 156.938ZM175 136.688L175 146.813L172 146.812L172 136.688L175 136.688ZM175 116.438L175 126.563L172 126.562L172 116.438L175 116.438ZM175 96.1875L175 106.313L172 106.312L172 96.1875L175 96.1875ZM175 75.9375L175 86.0625L172 86.0625L172 75.9375L175 75.9375ZM175 55.6875L175 65.8125L172 65.8125L172 55.6875L175 55.6875ZM175 35.4375L175 45.5625L172 45.5625L172 35.4375L175 35.4375ZM175 15.1875L175 25.3125L172 25.3125L172 15.1875L175 15.1875ZM175 1.31134e-07L175 5.0625L172 5.0625L172 0L175 1.31134e-07Z" fill="#D4E6DB"/>
<path fill-rule="evenodd" clip-rule="evenodd" d="M107 318.938L107 324L104 324L104 318.938L107 318.938ZM107 298.688L107 308.813L104 308.812L104 298.688L107 298.688ZM107 278.438L107 288.563L104 288.562L104 278.438L107 278.438ZM107 258.188L107 268.313L104 268.312L104 258.188L107 258.188ZM107 237.938L107 248.063L104 248.062L104 237.938L107 237.938ZM107 217.688L107 227.813L104 227.812L104 217.688L107 217.688ZM107 197.438L107 207.563L104 207.562L104 197.438L107 197.438ZM107 177.188L107 187.313L104 187.312L104 177.188L107 177.188ZM107 156.938L107 167.063L104 167.062L104 156.938L107 156.938ZM107 136.688L107 146.813L104 146.812L104 136.688L107 136.688ZM107 116.438L107 126.563L104 126.562L104 116.438L107 116.438ZM107 96.1875L107 106.313L104 106.312L104 96.1875L107 96.1875ZM107 75.9375L107 86.0625L104 86.0625L104 75.9375L107 75.9375ZM107 55.6875L107 65.8125L104 65.8125L104 55.6875L107 55.6875ZM107 35.4375L107 45.5625L104 45.5625L104 35.4375L107 35.4375ZM107 15.1875L107 25.3125L104 25.3125L104 15.1875L107 15.1875ZM107 1.31134e-07L107 5.0625L104 5.0625L104 0L107 1.31134e-07Z" fill="#D4E6DB"/>
<path fill-rule="evenodd" clip-rule="evenodd" d="M329.088 193H334V196H329.088V193ZM309.441 193H319.265V196H309.441V193ZM289.794 193H299.618V196H289.794V193ZM270.147 193H279.971V196H270.147V193ZM250.5 193H260.324V196H250.5V193ZM230.853 193H240.676V196H230.853V193ZM211.206 193L221.029 193V196L211.206 196V193ZM191.559 193H201.382V196H191.559V193ZM171.912 193H181.735V196H171.912V193ZM152.265 193H162.088V196H152.265V193ZM132.618 193H142.441V196H132.618V193ZM112.971 193H122.794V196H112.971V193ZM93.3235 193H103.147V196H93.3235V193ZM73.6764 193H83.5V196H73.6764V193ZM54.0294 193H63.8529V196H54.0294V193ZM34.3824 193H44.2059V196H34.3824V193ZM14.7353 193H24.5588V196H14.7353V193ZM0 193H4.9118V196H0V193Z" fill="#D4E6DB"/>
<path fill-rule="evenodd" clip-rule="evenodd" d="M182.9 3.94991L186 -9.42945e-05L188.36 1.85205L185.26 5.80205L182.9 3.94991ZM170.5 19.7499L176.7 11.8499L179.06 13.7021L172.86 21.602L170.5 19.7499ZM158.1 35.5499L164.3 27.6499L166.66 29.502L160.46 37.402L158.1 35.5499ZM145.7 51.3499L151.9 43.4499L154.26 45.302L148.06 53.202L145.7 51.3499ZM133.3 67.1499L139.5 59.2499L141.86 61.102L135.66 69.002L133.3 67.1499ZM120.9 82.9499L127.1 75.0499L129.46 76.9021L123.26 84.8021L120.9 82.9499ZM108.5 98.7499L114.7 90.8499L117.06 92.7021L110.86 100.602L108.5 98.7499ZM96.0999 114.55L102.3 106.65L104.66 108.502L98.4599 116.402L96.0999 114.55ZM83.6999 130.35L89.8999 122.45L92.2599 124.302L86.0599 132.202L83.6999 130.35ZM71.2999 146.15L77.4999 138.25L79.8599 140.102L73.6599 148.002L71.2999 146.15ZM58.8999 161.95L65.0999 154.05L67.4599 155.902L61.2599 163.802L58.8999 161.95ZM46.4999 177.75L52.6999 169.85L55.0599 171.702L48.8599 179.602L46.4999 177.75ZM34.0999 193.55L40.2999 185.65L42.6599 187.502L36.4599 195.402L34.0999 193.55ZM21.6999 209.35L27.8999 201.45L30.2599 203.302L24.0599 211.202L21.6999 209.35ZM9.29989 225.15L15.4999 217.25L17.8599 219.102L11.6599 227.002L9.29989 225.15ZM-0.000116651 237L3.09989 233.05L5.45988 234.902L2.35987 238.852L-0.000116651 237Z" fill="#D4E6DB"/>
<path fill-rule="evenodd" clip-rule="evenodd" d="M329.088 44H334V47H329.088V44ZM309.441 44H319.265V47H309.441V44ZM289.794 44H299.618V47H289.794V44ZM270.147 44H279.971V47H270.147V44ZM250.5 44H260.324V47H250.5V44ZM230.853 44H240.676V47H230.853V44ZM211.206 44H221.029V47H211.206V44ZM191.559 44H201.382V47H191.559V44ZM171.912 44H181.735V47H171.912V44ZM152.265 44H162.088V47H152.265V44ZM132.618 44L142.441 44V47H132.618V44ZM112.971 44H122.794V47H112.971V44ZM93.3235 44H103.147V47H93.3235V44ZM73.6764 44H83.5V47H73.6764V44ZM54.0294 44H63.8529V47H54.0294V44ZM34.3824 44H44.2059V47H34.3824V44ZM14.7353 44L24.5588 44V47L14.7353 47V44ZM0 44H4.9118V47H0V44Z" fill="#D4E6DB"/>
<path d="M277.6 399.2C271.2 409.6 261.6 418.4 248.8 425.6C236 432.4 221.4 435.8 205 435.8C171.4 435.8 146.6 427.2 130.6 410C115 392.8 107.2 367 107.2 332.6V193.4H53.8003V172.4L152.8 47H172.6V123.8H274V193.4H172.6V319.4C172.6 336.2 176.6 348.2 184.6 355.4C192.6 362.6 203.4 366.2 217 366.2C227.4 366.2 236.2 364.2 243.4 360.2C250.6 355.8 257.4 350.2 263.8 343.4L277.6 399.2Z" fill="#9ABBA7"/>
</svg>
