<svg width="237" height="692" viewBox="0 0 237 692" fill="none" xmlns="http://www.w3.org/2000/svg">
<path d="M1.7312 205.26L47.3361 57.0795L234.682 689.769H1.7312V205.26Z" stroke="#C1B9B3" stroke-width="3.4624"/>
<path d="M45.945 446.225C131.996 446.225 201.754 515.984 201.754 602.035C201.754 634.345 191.921 664.353 175.085 689.237H1.73V452.588C15.7446 448.448 30.5838 446.225 45.945 446.225Z" stroke="#C1B9B3" stroke-width="3.46"/>
<path d="M132.197 358.358C132.197 405.537 94.2069 443.764 47.3681 443.764C30.5653 443.764 14.9076 438.847 1.7312 430.364V286.352C14.9076 277.869 30.5653 272.952 47.3681 272.952C94.2069 272.952 132.197 311.179 132.197 358.358Z" stroke="#C1B9B3" stroke-width="3.4624"/>
<path d="M1 444.918L162.781 444.918" stroke="#C1B9B3" stroke-width="3.4624"/>
<line x1="1" y1="273.269" x2="112" y2="273.269" stroke="#C1B9B3" stroke-width="3.4624"/>
<line x1="47.7312" y1="62" x2="47.7312" y2="691" stroke="#C1B9B3" stroke-width="3.4624"/>
<path d="M168 690L115.955 652.937L48.6399 604.999" stroke="#C1B9B3" stroke-width="3.4624"/>
<line x1="111.096" y1="273.387" x2="48.7731" y2="359.947" stroke="#C1B9B3" stroke-width="3.4624"/>
<path d="M50.4733 22.3907C51.6172 23.4565 52.5011 24.5224 53.125 25.5883C53.7749 26.6281 54.0999 27.85 54.0999 29.2538C54.0999 30.3197 53.9179 31.2946 53.5539 32.1785C53.19 33.0624 52.67 33.8163 51.9941 34.4402C51.3182 35.0641 50.4993 35.5581 49.5374 35.922C48.6015 36.26 47.5487 36.4289 46.3788 36.4289C45.3909 36.4289 44.442 36.286 43.5322 36C42.6223 35.688 41.8034 35.3111 41.0755 34.8691C40.3735 34.4012 39.7626 33.8943 39.2427 33.3483C38.7487 32.7764 38.4108 32.2175 38.2288 31.6715L39.1257 28.5519C40.0356 30.0337 41.1145 31.1776 42.3623 31.9835C43.6361 32.7634 45.092 33.1533 46.7298 33.1533C48.1596 33.1533 49.2385 32.8024 49.9664 32.1005C50.6943 31.3726 51.0582 30.4627 51.0582 29.3708C51.0582 28.4869 50.8113 27.694 50.3173 26.9921C49.8234 26.2902 49.2385 25.6533 48.5625 25.0813C46.7688 23.5995 45.3389 22.4037 44.2731 21.4938C43.2332 20.5579 42.4143 19.791 41.8164 19.193C40.8545 18.2052 40.1656 17.2953 39.7496 16.4634C39.3597 15.6315 39.1647 14.7216 39.1647 13.7337C39.1647 11.8619 39.7886 10.3671 41.0365 9.24926C42.2843 8.1314 43.9481 7.57246 46.0279 7.57246C47.5357 7.57246 48.9135 7.94942 50.1614 8.70333C51.4092 9.43124 52.3321 10.3281 52.93 11.394L52.1891 14.5136C51.4352 13.4737 50.5253 12.6029 49.4594 11.9009C48.4196 11.199 47.2367 10.8481 45.9109 10.8481C44.819 10.8481 43.9221 11.095 43.2202 11.589C42.5443 12.0829 42.2063 12.8368 42.2063 13.8507C42.2063 14.2407 42.2843 14.6176 42.4403 14.9816C42.5963 15.3195 42.7912 15.6445 43.0252 15.9564C43.2852 16.2684 43.5452 16.5544 43.8051 16.8143C44.0911 17.0743 44.3511 17.2953 44.585 17.4773C45.7289 18.4131 46.6518 19.1671 47.3537 19.739C48.0556 20.3109 48.6015 20.7659 48.9915 21.1038C49.4074 21.4418 49.7194 21.7017 49.9274 21.8837C50.1354 22.0657 50.3173 22.2347 50.4733 22.3907Z" fill="#C1B9B3"/>
<path d="M151.914 252.677H155.268L159.011 280.676H156.047L152.889 257.825L144.622 280.676H141.541L133.079 257.825L130.194 280.676H127.113L130.818 252.677H134.171L142.984 276.543L151.914 252.677Z" fill="#C1B9B3"/>
<path d="M194.288 461.151C192.417 461.151 191 460.631 190.038 459.591C189.076 458.551 188.53 457.121 188.4 455.301C186.71 455.145 185.111 454.677 183.604 453.898C182.096 453.092 180.77 452.052 179.626 450.778C178.508 449.504 177.611 448.035 176.935 446.371C176.286 444.682 175.961 442.875 175.961 440.951C175.961 438.897 176.325 437 177.052 435.258C177.806 433.49 178.807 431.969 180.055 430.695C181.329 429.396 182.798 428.382 184.462 427.654C186.125 426.9 187.88 426.523 189.726 426.523C191.572 426.523 193.326 426.9 194.99 427.654C196.654 428.382 198.11 429.396 199.358 430.695C200.632 431.969 201.632 433.49 202.36 435.258C203.114 437 203.491 438.897 203.491 440.951C203.491 442.823 203.179 444.578 202.555 446.216C201.931 447.853 201.073 449.309 199.982 450.583C198.89 451.831 197.616 452.871 196.16 453.703C194.73 454.508 193.196 455.028 191.559 455.262C191.689 456.224 192.04 456.913 192.612 457.329C193.183 457.771 193.924 457.992 194.834 457.992C195.588 457.992 196.264 457.849 196.862 457.563C197.46 457.277 197.928 456.913 198.266 456.471L198.617 459.24C198.201 459.812 197.629 460.267 196.901 460.605C196.173 460.969 195.302 461.151 194.288 461.151ZM193.937 430.656C192.638 430.084 191.234 429.799 189.726 429.799C188.218 429.799 186.801 430.084 185.475 430.656C184.176 431.202 183.045 431.969 182.083 432.957C181.121 433.945 180.367 435.128 179.821 436.506C179.275 437.858 179.002 439.339 179.002 440.951C179.002 442.563 179.275 444.058 179.821 445.436C180.367 446.787 181.121 447.957 182.083 448.945C183.045 449.933 184.176 450.713 185.475 451.285C186.801 451.831 188.218 452.104 189.726 452.104C191.234 452.104 192.638 451.831 193.937 451.285C195.263 450.713 196.407 449.933 197.369 448.945C198.331 447.957 199.085 446.787 199.631 445.436C200.177 444.058 200.45 442.563 200.45 440.951C200.45 439.339 200.177 437.858 199.631 436.506C199.085 435.128 198.331 433.945 197.369 432.957C196.407 431.969 195.263 431.202 193.937 430.656Z" fill="#C1B9B3"/>
<path d="M17.291 645.395H25.324C26.3639 645.395 27.3908 645.564 28.4047 645.902C29.4185 646.214 30.3284 646.708 31.1343 647.384C31.9402 648.034 32.5772 648.866 33.0451 649.879C33.539 650.867 33.786 652.05 33.786 653.428C33.786 655.378 33.2791 657.016 32.2652 658.341C31.2773 659.667 29.9255 660.577 28.2097 661.071L34.7999 673.394H29.8085L23.4523 661.578H21.6975V673.394H17.291V645.395ZM21.6975 650.152V657.055H25.948C26.9358 657.055 27.7547 656.743 28.4047 656.119C29.0546 655.495 29.3796 654.663 29.3796 653.623C29.3796 652.635 29.0546 651.816 28.4047 651.166C27.7807 650.49 26.9618 650.152 25.948 650.152H21.6975Z" fill="#C1B9B3"/>
<path d="M35.0955 310.83C34.7835 310.596 34.3936 310.388 33.9256 310.206C33.4837 310.024 32.9768 309.933 32.4048 309.933C31.7809 309.933 31.222 310.037 30.728 310.245C30.2341 310.453 29.8051 310.726 29.4412 311.064C29.1032 311.402 28.8173 311.792 28.5833 312.234C28.3753 312.65 28.2323 313.066 28.1543 313.482V325.688H23.9039V305.917H27.9984V308.53C28.3103 307.568 28.8433 306.814 29.5972 306.268C30.3511 305.696 31.313 305.41 32.4828 305.41C33.2367 305.41 33.8996 305.566 34.4716 305.878C35.0435 306.164 35.4595 306.528 35.7194 306.97L35.0955 310.83Z" fill="#C1B9B3"/>
<path d="M84.3 272.953C81.9917 278.916 80.953 291.534 95.2642 294.304" stroke="#C1B9B3" stroke-width="3.4624"/>
<path d="M92.5179 252.127C93.3489 252.127 94.1152 252.247 94.8169 252.487C95.5371 252.709 96.1465 253.041 96.6451 253.484C97.1621 253.928 97.5684 254.482 97.8638 255.146C98.1593 255.811 98.307 256.568 98.307 257.418V266.06H96.3127V264.758C95.9618 265.238 95.4171 265.626 94.6784 265.921C93.9398 266.217 93.1365 266.365 92.2686 266.365C90.5697 266.365 89.2401 265.967 88.2799 265.173C87.3197 264.379 86.8395 263.29 86.8395 261.905C86.8395 261.24 86.978 260.64 87.255 260.104C87.532 259.569 87.9106 259.117 88.3907 258.747C88.8893 258.359 89.471 258.073 90.1358 257.889C90.8005 257.685 91.5207 257.584 92.2963 257.584C92.5548 257.584 92.8503 257.602 93.1827 257.639C93.5335 257.676 93.8936 257.75 94.2629 257.861C94.6323 257.953 94.9923 258.082 95.3432 258.249C95.6941 258.396 95.9988 258.59 96.2573 258.83V257.972C96.2573 256.716 95.8787 255.802 95.1216 255.229C94.383 254.639 93.4597 254.343 92.3517 254.343C91.4838 254.343 90.6805 254.518 89.9419 254.869C89.2032 255.22 88.6308 255.663 88.2245 256.199L87.6705 254.371C87.8552 254.057 88.1137 253.771 88.4461 253.512C88.7785 253.235 89.157 252.995 89.5818 252.792C90.0065 252.589 90.4681 252.432 90.9667 252.321C91.4653 252.192 91.9824 252.127 92.5179 252.127ZM96.2573 261.212C95.9988 260.732 95.5094 260.381 94.7892 260.16C94.0875 259.92 93.3119 259.8 92.4625 259.8C91.3545 259.8 90.4774 259.994 89.8311 260.381C89.2032 260.751 88.8893 261.259 88.8893 261.905C88.8893 262.533 89.1847 263.068 89.7757 263.511C90.385 263.936 91.2807 264.149 92.4625 264.149C93.3304 264.149 94.1152 263.992 94.8169 263.678C95.5186 263.364 95.9988 262.958 96.2573 262.459V261.212Z" fill="#C1B9B3"/>
<circle cx="47.9451" cy="358.359" r="5.1936" fill="#C1B9B3"/>
<circle cx="48.1936" cy="605.194" r="5.1936" fill="#C1B9B3"/>
</svg>
