<svg width="1114" height="572" viewBox="0 0 1114 572" fill="none" xmlns="http://www.w3.org/2000/svg">
<path d="M1042 0L22 511V0H1042Z" fill="#D4E7DB"/>
<path d="M1113.83 14.0829V572H0L1113.83 14.0829Z" fill="#13552D"/>
<rect x="1004.02" y="104.732" width="73.6219" height="73.6219" stroke="#BDCDC3" stroke-width="1.69099"/>
<rect x="1004.22" y="325.406" width="73.6219" height="73.6219" stroke="#BDCDC3" stroke-width="1.69099"/>
<rect x="930.662" y="398.964" width="73.558" height="73.558" stroke="#BDCDC3" stroke-width="1.69099"/>
<path d="M857.104 546.08H1077.78V472.522" stroke="#BDCDC3" stroke-width="1.69099"/>
<rect x="1004.22" y="178.29" width="73.6219" height="73.6219" stroke="#BDCDC3" stroke-width="1.69099"/>
<rect x="930.662" y="178.29" width="73.6219" height="73.6219" stroke="#BDCDC3" stroke-width="1.69099"/>
<rect x="857.104" y="178.29" width="73.6219" height="73.6219" stroke="#BDCDC3" stroke-width="1.69099"/>
<rect x="1004.22" y="398.964" width="73.6219" height="73.6219" stroke="#BDCDC3" stroke-width="1.69099"/>
<rect x="1004.22" y="251.848" width="73.6219" height="73.6219" stroke="#BDCDC3" stroke-width="1.69099"/>
<rect x="930.662" y="325.406" width="73.558" height="73.558" stroke="#BDCDC3" stroke-width="1.69099"/>
<rect x="857.104" y="398.964" width="73.6219" height="73.6219" stroke="#BDCDC3" stroke-width="1.69099"/>
<rect x="783.547" y="472.522" width="73.6219" height="73.6219" stroke="#BDCDC3" stroke-width="1.69099"/>
<rect x="930.662" y="251.848" width="73.558" height="73.558" stroke="#BDCDC3" stroke-width="1.69099"/>
<rect x="857.104" y="325.406" width="73.558" height="73.558" stroke="#BDCDC3" stroke-width="1.69099"/>
<rect x="783.547" y="398.964" width="73.6219" height="73.6219" stroke="#BDCDC3" stroke-width="1.69099"/>
<rect x="709.988" y="472.522" width="73.6219" height="73.6219" stroke="#BDCDC3" stroke-width="1.69099"/>
<rect x="783.547" y="251.848" width="73.6219" height="73.6219" stroke="#BDCDC3" stroke-width="1.69099"/>
<path d="M801.572 270.855H817.116V274.954H805.387V282.949H815.899V287.048H805.387V295.895H817.116V299.994H801.572V270.855ZM831.944 296.545C832.593 296.545 833.229 296.463 833.851 296.301C834.474 296.139 835.055 295.936 835.597 295.692C836.165 295.449 836.665 295.165 837.098 294.84C837.531 294.515 837.896 294.191 838.194 293.866L839.168 296.747C838.951 297.207 838.613 297.654 838.153 298.087C837.72 298.52 837.179 298.925 836.53 299.304C835.908 299.656 835.191 299.94 834.379 300.156C833.567 300.373 832.688 300.481 831.741 300.481C830.226 300.481 828.819 300.238 827.52 299.751C826.249 299.237 825.139 298.533 824.192 297.64C823.273 296.72 822.542 295.611 822.001 294.312C821.487 292.987 821.23 291.512 821.23 289.889C821.23 288.482 821.46 287.143 821.92 285.871C822.38 284.572 823.043 283.436 823.908 282.462C824.774 281.488 825.816 280.717 827.033 280.149C828.251 279.553 829.631 279.256 831.173 279.256C832.634 279.256 833.946 279.54 835.11 280.108C836.273 280.676 837.26 281.447 838.072 282.421C838.911 283.368 839.547 284.491 839.98 285.79C840.412 287.061 840.629 288.414 840.629 289.848C840.629 290.281 840.588 290.741 840.507 291.228H825.004C825.194 293.014 825.911 294.353 827.155 295.246C828.4 296.112 829.996 296.545 831.944 296.545ZM836.692 287.494C836.638 286.899 836.462 286.344 836.165 285.83C835.867 285.289 835.461 284.829 834.947 284.451C834.46 284.045 833.892 283.734 833.243 283.517C832.593 283.301 831.903 283.192 831.173 283.192C830.442 283.192 829.725 283.301 829.022 283.517C828.346 283.734 827.737 284.031 827.196 284.41C826.682 284.789 826.249 285.249 825.897 285.79C825.545 286.304 825.329 286.872 825.248 287.494H836.692Z" fill="#D4E6DB"/>
<rect x="709.988" y="325.406" width="73.558" height="73.558" stroke="#BDCDC3" stroke-width="1.69099"/>
<rect x="636.43" y="398.964" width="73.6219" height="73.6219" stroke="#BDCDC3" stroke-width="1.69099"/>
<rect x="562.873" y="472.522" width="73.6219" height="73.6219" stroke="#BDCDC3" stroke-width="1.69099"/>
<rect x="857.104" y="251.848" width="73.6219" height="73.6219" stroke="#BDCDC3" stroke-width="1.69099"/>
<rect x="783.547" y="325.406" width="73.558" height="73.558" stroke="#BDCDC3" stroke-width="1.69099"/>
<rect x="709.988" y="398.964" width="73.6219" height="73.6219" stroke="#BDCDC3" stroke-width="1.69099"/>
<rect x="636.43" y="472.522" width="73.6219" height="73.6219" stroke="#BDCDC3" stroke-width="1.69099"/>
<path d="M659.84 517.016C661.274 517.016 662.6 516.813 663.818 516.407C665.035 516.001 666.104 515.406 667.024 514.621C667.944 513.81 668.688 512.836 669.256 511.699C669.824 510.536 670.189 509.21 670.352 507.722H656.959V503.623H670.271C669.811 500.972 668.674 498.902 666.861 497.414C665.049 495.926 662.722 495.182 659.881 495.182C657.771 495.182 655.89 495.642 654.24 496.561C652.59 497.454 651.318 498.564 650.425 499.889L649.248 496.48C649.627 495.777 650.155 495.1 650.831 494.451C651.534 493.775 652.346 493.193 653.266 492.706C654.186 492.192 655.214 491.786 656.35 491.489C657.514 491.191 658.758 491.042 660.084 491.042C662.032 491.042 663.858 491.407 665.563 492.138C667.294 492.841 668.809 493.856 670.108 495.182C671.407 496.48 672.435 498.063 673.193 499.93C673.95 501.77 674.329 503.826 674.329 506.099C674.329 508.371 673.95 510.428 673.193 512.267C672.435 514.107 671.407 515.69 670.108 517.016C668.809 518.341 667.294 519.37 665.563 520.1C663.858 520.803 662.046 521.155 660.125 521.155C658.772 521.155 657.514 521.006 656.35 520.709C655.214 520.438 654.159 520.059 653.185 519.572C652.238 519.085 651.399 518.504 650.669 517.827C649.965 517.151 649.397 516.42 648.964 515.636L650.1 512.227C651.02 513.553 652.292 514.689 653.915 515.636C655.566 516.556 657.541 517.016 659.84 517.016ZM679.276 514.702C679.817 515.379 680.561 515.974 681.508 516.488C682.482 516.975 683.618 517.219 684.917 517.219C686.865 517.219 688.515 516.813 689.868 516.001C691.221 515.189 692.087 513.904 692.465 512.146H684.024V508.29H692.262C691.803 506.748 690.937 505.625 689.665 504.922C688.421 504.218 686.905 503.867 685.12 503.867C683.956 503.867 682.861 504.11 681.832 504.597C680.804 505.084 680.006 505.652 679.438 506.302L678.464 503.38C678.653 502.947 678.978 502.527 679.438 502.121C679.898 501.689 680.439 501.31 681.061 500.985C681.711 500.66 682.428 500.403 683.212 500.214C684.024 500.025 684.89 499.93 685.81 499.93C687.298 499.93 688.678 500.187 689.949 500.701C691.221 501.215 692.33 501.946 693.277 502.893C694.224 503.812 694.968 504.935 695.509 506.261C696.05 507.56 696.321 508.994 696.321 510.563C696.321 512.159 696.05 513.607 695.509 514.905C694.968 516.204 694.224 517.313 693.277 518.233C692.33 519.153 691.221 519.87 689.949 520.384C688.678 520.898 687.298 521.155 685.81 521.155C684.944 521.155 684.105 521.061 683.293 520.871C682.482 520.682 681.738 520.425 681.061 520.1C680.412 519.775 679.844 519.41 679.357 519.004C678.897 518.598 678.545 518.166 678.302 517.706L679.276 514.702Z" fill="#D4E6DB"/>
<path d="M736.332 491.867C738.109 491.867 739.799 492.213 741.403 492.904C743.008 493.595 744.414 494.557 745.623 495.791C746.832 497.025 747.795 498.481 748.511 500.159C749.226 501.837 749.584 503.651 749.584 505.6C749.584 507.574 749.226 509.4 748.511 511.079C747.795 512.732 746.832 514.176 745.623 515.409C744.414 516.643 743.008 517.606 741.403 518.297C739.824 518.988 738.158 519.333 736.406 519.333C734.704 519.333 733.087 519.025 731.557 518.408C730.052 517.791 728.695 516.939 727.485 515.854C726.301 514.768 725.326 513.485 724.561 512.004C723.796 510.499 723.327 508.858 723.155 507.081H718.491V518.889H715.011V492.311H718.491V503.342H723.266C723.512 501.689 724.031 500.159 724.82 498.752C725.61 497.346 726.585 496.136 727.745 495.125C728.929 494.088 730.249 493.286 731.705 492.719C733.186 492.151 734.728 491.867 736.332 491.867ZM736.369 495.643C734.987 495.643 733.704 495.89 732.52 496.383C731.335 496.877 730.299 497.568 729.41 498.456C728.547 499.345 727.856 500.406 727.337 501.639C726.844 502.849 726.597 504.181 726.597 505.637C726.597 507.093 726.844 508.438 727.337 509.672C727.856 510.881 728.547 511.93 729.41 512.818C730.299 513.682 731.335 514.361 732.52 514.854C733.704 515.323 734.987 515.557 736.369 515.557C737.727 515.557 738.997 515.323 740.182 514.854C741.366 514.361 742.391 513.682 743.254 512.818C744.118 511.93 744.797 510.881 745.29 509.672C745.808 508.438 746.067 507.081 746.067 505.6C746.067 504.144 745.808 502.812 745.29 501.602C744.797 500.369 744.118 499.32 743.254 498.456C742.391 497.568 741.366 496.877 740.182 496.383C738.997 495.89 737.727 495.643 736.369 495.643ZM778.872 505.822C779.39 507.007 779.649 508.29 779.649 509.672C779.649 511.054 779.39 512.337 778.872 513.522C778.378 514.706 777.7 515.73 776.836 516.594C775.997 517.458 775.01 518.136 773.875 518.63C772.764 519.099 771.58 519.333 770.321 519.333C769.161 519.333 768.063 519.136 767.027 518.741C765.99 518.346 765.052 517.791 764.213 517.075C763.399 516.335 762.72 515.471 762.178 514.484C761.635 513.472 761.277 512.362 761.104 511.153H757.847V518.889H754.478V500.418H757.847V507.562H761.215C761.437 506.452 761.832 505.44 762.4 504.527C762.967 503.589 763.658 502.787 764.473 502.121C765.287 501.43 766.188 500.899 767.175 500.529C768.186 500.159 769.235 499.974 770.321 499.974C771.58 499.974 772.764 500.221 773.875 500.714C775.01 501.208 775.997 501.886 776.836 502.75C777.7 503.614 778.378 504.638 778.872 505.822ZM764.361 509.672C764.361 510.585 764.51 511.424 764.806 512.189C765.102 512.929 765.521 513.571 766.064 514.114C766.607 514.632 767.236 515.039 767.952 515.335C768.668 515.607 769.457 515.743 770.321 515.743C771.16 515.743 771.937 515.607 772.653 515.335C773.393 515.039 774.035 514.632 774.578 514.114C775.121 513.571 775.54 512.929 775.836 512.189C776.133 511.449 776.281 510.622 776.281 509.709C776.281 508.796 776.133 507.969 775.836 507.229C775.54 506.464 775.121 505.81 774.578 505.267C774.035 504.724 773.393 504.305 772.653 504.009C771.937 503.712 771.16 503.564 770.321 503.564C769.457 503.564 768.668 503.712 767.952 504.009C767.236 504.305 766.607 504.724 766.064 505.267C765.521 505.81 765.102 506.464 764.806 507.229C764.51 507.969 764.361 508.784 764.361 509.672Z" fill="#D4E6DB"/>
<rect x="709.988" y="251.848" width="73.6219" height="73.6219" stroke="#BDCDC3" stroke-width="1.69099"/>
<path d="M743.206 295.895H747.224V306.244H743.571V299.994H722.468V306.244H718.815V295.895H721.128C722.021 294.353 722.846 292.77 723.604 291.147C724.389 289.496 725.052 287.765 725.593 285.952C726.161 284.112 726.594 282.164 726.891 280.108C727.216 278.025 727.378 275.766 727.378 273.331V270.855H743.206V295.895ZM739.391 295.895V274.954H731.112C731.112 276.848 730.963 278.769 730.666 280.717C730.368 282.638 729.962 284.518 729.448 286.358C728.961 288.171 728.379 289.902 727.703 291.553C727.054 293.176 726.35 294.624 725.593 295.895H739.391ZM754.095 296.058C754.582 295.327 755.069 294.475 755.556 293.501C756.07 292.527 756.517 291.431 756.895 290.213C757.301 288.969 757.626 287.589 757.869 286.074C758.113 284.559 758.235 282.881 758.235 281.042V279.743H771.668V296.058H775.036V305.392H771.506V299.994H755.637V305.392H752.107V296.058H754.095ZM767.975 296.058V283.679H761.644C761.563 285.14 761.387 286.52 761.116 287.819C760.873 289.118 760.575 290.295 760.223 291.35C759.899 292.405 759.547 293.338 759.168 294.15C758.816 294.935 758.492 295.571 758.194 296.058H767.975Z" fill="#D4E6DB"/>
<rect x="636.43" y="325.406" width="73.558" height="73.558" stroke="#BDCDC3" stroke-width="1.69099"/>
<rect x="562.873" y="398.964" width="73.6219" height="73.6219" stroke="#BDCDC3" stroke-width="1.69099"/>
<rect x="489.314" y="472.522" width="73.6219" height="73.6219" stroke="#BDCDC3" stroke-width="1.69099"/>
<rect x="562.873" y="325.406" width="73.558" height="73.558" stroke="#BDCDC3" stroke-width="1.69099"/>
<rect x="489.314" y="398.964" width="73.6219" height="73.6219" stroke="#BDCDC3" stroke-width="1.69099"/>
<path d="M513.766 417.971C515.065 417.971 516.269 418.187 517.378 418.62C518.515 419.026 519.489 419.621 520.3 420.406C521.112 421.191 521.748 422.138 522.208 423.247C522.695 424.329 522.938 425.533 522.938 426.859C522.938 428.158 522.708 429.348 522.248 430.43C521.815 431.512 521.193 432.446 520.381 433.23C519.57 433.988 518.596 434.583 517.459 435.016C516.35 435.449 515.133 435.665 513.807 435.665H509.464V447.11H505.65V417.971H513.766ZM509.464 422.07V431.567H514.416C515.741 431.567 516.851 431.134 517.744 430.268C518.636 429.375 519.083 428.225 519.083 426.818C519.083 426.169 518.961 425.56 518.718 424.992C518.501 424.397 518.176 423.883 517.744 423.45C517.338 423.017 516.851 422.679 516.283 422.435C515.714 422.192 515.092 422.07 514.416 422.07H509.464ZM546.838 432.703C547.406 434.002 547.69 435.436 547.69 437.005C547.69 438.574 547.406 440.008 546.838 441.307C546.27 442.605 545.512 443.728 544.565 444.675C543.618 445.595 542.509 446.312 541.237 446.826C539.993 447.34 538.681 447.597 537.301 447.597C535.759 447.597 534.433 447.34 533.324 446.826C532.214 446.312 531.497 445.676 531.173 444.919V455.754H527.48V426.859H531.051V429.01C531.376 428.252 532.093 427.63 533.202 427.143C534.338 426.629 535.677 426.372 537.22 426.372C538.627 426.372 539.966 426.629 541.237 427.143C542.509 427.657 543.618 428.387 544.565 429.334C545.512 430.254 546.27 431.377 546.838 432.703ZM543.997 436.924C543.997 434.894 543.375 433.285 542.13 432.094C540.886 430.904 539.235 430.308 537.179 430.308C535.772 430.308 534.501 430.633 533.364 431.282C532.255 431.905 531.524 432.703 531.173 433.677V440.292C531.524 441.266 532.255 442.078 533.364 442.727C534.501 443.349 535.772 443.66 537.179 443.66C539.235 443.66 540.886 443.052 542.13 441.834C543.375 440.617 543.997 438.98 543.997 436.924Z" fill="#D4E6DB"/>
<path d="M601.697 442.078C601.237 442.862 600.656 443.593 599.952 444.269C599.249 444.946 598.41 445.527 597.436 446.014C596.489 446.501 595.434 446.88 594.27 447.151C593.107 447.448 591.862 447.597 590.537 447.597C588.616 447.597 586.789 447.245 585.058 446.542C583.353 445.811 581.852 444.783 580.553 443.458C579.254 442.132 578.226 440.549 577.469 438.709C576.711 436.869 576.332 434.813 576.332 432.541C576.332 430.268 576.711 428.212 577.469 426.372C578.226 424.505 579.254 422.922 580.553 421.624C581.852 420.298 583.353 419.283 585.058 418.58C586.789 417.849 588.629 417.484 590.577 417.484C591.903 417.484 593.134 417.633 594.27 417.93C595.434 418.228 596.475 418.634 597.395 419.148C598.315 419.635 599.113 420.217 599.79 420.893C600.493 421.542 601.034 422.219 601.413 422.922L600.236 426.331C599.343 425.006 598.072 423.896 596.421 423.003C594.771 422.083 592.89 421.624 590.78 421.624C589.211 421.624 587.777 421.881 586.478 422.395C585.18 422.882 584.057 423.599 583.11 424.546C582.19 425.465 581.473 426.602 580.959 427.955C580.445 429.307 580.188 430.836 580.188 432.541C580.188 434.245 580.445 435.774 580.959 437.127C581.473 438.452 582.19 439.589 583.11 440.536C584.057 441.482 585.18 442.213 586.478 442.727C587.777 443.214 589.211 443.458 590.78 443.458C593.107 443.458 595.082 442.998 596.705 442.078C598.356 441.131 599.641 439.994 600.561 438.669L601.697 442.078ZM623.093 444.066C622.876 444.526 622.538 444.973 622.078 445.406C621.645 445.811 621.104 446.177 620.455 446.501C619.805 446.826 619.061 447.083 618.223 447.272C617.411 447.489 616.532 447.597 615.585 447.597C614.205 447.597 612.879 447.34 611.608 446.826C610.336 446.312 609.213 445.595 608.239 444.675C607.292 443.728 606.521 442.605 605.926 441.307C605.358 440.008 605.074 438.56 605.074 436.964C605.074 435.395 605.358 433.961 605.926 432.662C606.521 431.337 607.292 430.214 608.239 429.294C609.213 428.374 610.336 427.657 611.608 427.143C612.879 426.629 614.205 426.372 615.585 426.372C616.505 426.372 617.357 426.467 618.141 426.656C618.953 426.845 619.67 427.102 620.292 427.427C620.942 427.752 621.483 428.117 621.916 428.523C622.376 428.929 622.714 429.348 622.93 429.781L621.956 432.703C621.388 432.054 620.59 431.499 619.562 431.039C618.534 430.552 617.438 430.308 616.275 430.308C614.002 430.308 612.176 430.917 610.796 432.135C609.443 433.325 608.767 434.935 608.767 436.964C608.767 437.965 608.943 438.885 609.294 439.724C609.673 440.536 610.187 441.239 610.836 441.834C611.486 442.402 612.27 442.849 613.19 443.173C614.11 443.498 615.138 443.66 616.275 443.66C617.519 443.66 618.656 443.417 619.684 442.93C620.712 442.416 621.51 441.834 622.078 441.185L623.093 444.066Z" fill="#D4E6DB"/>
<path d="M653.104 417.971H675.263V421.989H666.091V447.11H662.276V421.989H653.104V417.971ZM691.731 430.796H684.994V447.11H681.301V430.796H674.564V426.859H691.731V430.796Z" fill="#D4E6DB"/>
<path d="M725.457 417.971H729.678L736.415 433.109L742.502 417.971H746.764L735.116 447.11H730.814L734.426 438.06L725.457 417.971ZM747.286 426.859H751.426L757.635 441.753L763.804 426.859H767.903L755.849 455.754H751.75L755.646 446.339L747.286 426.859Z" fill="#D4E6DB"/>
<path d="M803.71 444.107C801.87 444.053 800.179 443.728 798.637 443.133C797.095 442.538 795.769 441.726 794.66 440.698C793.55 439.67 792.671 438.452 792.022 437.046C791.399 435.612 791.088 434.015 791.088 432.257C791.088 430.525 791.399 428.942 792.022 427.508C792.671 426.074 793.55 424.843 794.66 423.815C795.769 422.787 797.095 421.989 798.637 421.421C800.179 420.826 801.87 420.501 803.71 420.447V417.362H807.525V420.447C809.337 420.501 811.015 420.826 812.557 421.421C814.126 421.989 815.465 422.787 816.575 423.815C817.684 424.843 818.55 426.074 819.172 427.508C819.821 428.942 820.146 430.525 820.146 432.257C820.146 434.015 819.821 435.612 819.172 437.046C818.55 438.452 817.684 439.67 816.575 440.698C815.465 441.726 814.126 442.538 812.557 443.133C811.015 443.728 809.337 444.053 807.525 444.107V447.557H803.71V444.107ZM815.601 435.544C816.061 434.597 816.291 433.515 816.291 432.297C816.291 431.08 816.061 429.998 815.601 429.051C815.168 428.104 814.559 427.305 813.774 426.656C813.017 425.98 812.097 425.466 811.015 425.114C809.933 424.762 808.769 424.573 807.525 424.546V440.008C808.769 439.981 809.933 439.792 811.015 439.44C812.097 439.088 813.017 438.588 813.774 437.938C814.559 437.289 815.168 436.491 815.601 435.544ZM795.593 429.051C795.16 429.998 794.944 431.08 794.944 432.297C794.944 433.515 795.16 434.597 795.593 435.544C796.053 436.491 796.662 437.289 797.419 437.938C798.204 438.588 799.124 439.088 800.179 439.44C801.261 439.792 802.438 439.981 803.71 440.008V424.546C802.438 424.573 801.261 424.762 800.179 425.114C799.124 425.466 798.204 425.98 797.419 426.656C796.662 427.305 796.053 428.104 795.593 429.051ZM827.407 437.046C827.407 439.237 828.096 440.86 829.476 441.916C830.856 442.971 832.669 443.498 834.914 443.498V430.552C833.805 430.552 832.791 430.687 831.871 430.958C830.951 431.202 830.153 431.594 829.476 432.135C828.827 432.676 828.313 433.352 827.934 434.164C827.582 434.976 827.407 435.936 827.407 437.046ZM838.608 426.372C840.258 426.399 841.773 426.67 843.153 427.184C844.533 427.671 845.71 428.374 846.684 429.294C847.685 430.214 848.456 431.337 848.997 432.663C849.538 433.961 849.809 435.422 849.809 437.046C849.809 438.669 849.538 440.13 848.997 441.429C848.456 442.7 847.685 443.796 846.684 444.716C845.71 445.636 844.533 446.339 843.153 446.826C841.773 447.313 840.258 447.57 838.608 447.597V455.755H834.914V447.597C833.264 447.57 831.749 447.313 830.369 446.826C828.989 446.339 827.799 445.636 826.798 444.716C825.824 443.796 825.066 442.7 824.525 441.429C823.984 440.13 823.713 438.669 823.713 437.046C823.713 435.422 823.984 433.961 824.525 432.663C825.066 431.337 825.824 430.214 826.798 429.294C827.799 428.374 828.989 427.671 830.369 427.184C831.749 426.67 833.264 426.399 834.914 426.372V417.565H838.608V426.372ZM846.116 437.046C846.116 435.936 845.926 434.976 845.547 434.164C845.196 433.352 844.682 432.676 844.005 432.135C843.356 431.594 842.571 431.202 841.651 430.958C840.731 430.687 839.717 430.552 838.608 430.552V443.498C840.853 443.498 842.666 442.971 844.046 441.916C845.426 440.86 846.116 439.237 846.116 437.046Z" fill="#D4E6DB"/>
<path d="M817.758 520.668H813.943V508.574H811.143L804.568 520.668H800.063L806.922 508.087C805.082 507.573 803.635 506.653 802.58 505.328C801.551 504.002 801.037 502.27 801.037 500.133C801.037 498.726 801.281 497.495 801.768 496.44C802.282 495.357 802.958 494.451 803.797 493.721C804.636 492.99 805.569 492.449 806.597 492.097C807.652 491.718 808.735 491.529 809.844 491.529H817.758V520.668ZM809.276 495.628C808.626 495.628 808.031 495.75 807.49 495.993C806.949 496.21 806.489 496.521 806.11 496.927C805.732 497.333 805.434 497.806 805.217 498.347C805.001 498.888 804.893 499.484 804.893 500.133C804.893 501.432 805.312 502.487 806.151 503.298C806.99 504.083 808.031 504.475 809.276 504.475H813.943V495.628H809.276ZM838.602 500.417V520.668H834.909V514.378H831.378L827.036 520.668H822.815L827.604 513.728C826.333 513.187 825.318 512.376 824.56 511.293C823.803 510.184 823.424 508.885 823.424 507.397C823.424 506.342 823.613 505.395 823.992 504.556C824.398 503.691 824.926 502.96 825.575 502.365C826.251 501.743 827.036 501.269 827.929 500.945C828.849 500.593 829.836 500.417 830.891 500.417H838.602ZM830.283 504.354C829.309 504.354 828.538 504.651 827.969 505.246C827.401 505.815 827.117 506.545 827.117 507.438C827.117 508.412 827.415 509.156 828.01 509.67C828.605 510.184 829.363 510.441 830.283 510.441H834.909V504.354H830.283Z" fill="#D4E6DB"/>
<path d="M876.315 447.11H871.444L881.144 432.013L872.053 417.971H876.72L883.457 428.442L890.194 417.971H895.024L885.933 432.013L895.592 447.11H890.965L883.62 435.706L876.315 447.11ZM901.508 447.11H896.962L904.592 436.356L897.733 426.859H902.238L906.824 433.271L911.451 426.859H916.036L909.178 436.396L916.889 447.11H912.425L906.905 439.521L901.508 447.11Z" fill="#D4E6DB"/>
<path d="M941.925 417.971H945.74V443.011H960.756V417.971H964.571V443.011H968.589V453.36H964.936V447.11H941.925V417.971ZM991.432 452.508V447.11H973.94V426.859H977.634V443.174H987.901V426.859H991.594V443.174H994.963V452.508H991.432Z" fill="#D4E6DB"/>
<path d="M1024.64 417.971V425.601C1024.64 427.549 1025.1 428.929 1026.02 429.74C1026.97 430.525 1028.37 430.917 1030.24 430.917C1031.19 430.917 1032.01 430.863 1032.72 430.755C1033.45 430.647 1034.19 430.484 1034.95 430.268V417.971H1038.76V447.11H1034.95V434.448C1034.08 434.637 1033.2 434.786 1032.31 434.894C1031.45 435.003 1030.51 435.057 1029.51 435.057C1028.32 435.057 1027.2 434.908 1026.14 434.61C1025.11 434.313 1024.19 433.853 1023.38 433.23C1022.6 432.581 1021.98 431.769 1021.52 430.795C1021.06 429.794 1020.83 428.59 1020.83 427.183V417.971H1024.64ZM1044.65 426.859H1048.34V431.404C1048.34 433.082 1048.69 434.245 1049.39 434.894C1050.12 435.517 1051.17 435.828 1052.52 435.828C1053.17 435.828 1053.83 435.76 1054.51 435.625C1055.18 435.49 1055.78 435.26 1056.29 434.935V426.859H1059.99V447.11H1056.29V439.075C1055.81 439.291 1055.25 439.467 1054.63 439.602C1054.01 439.71 1053.26 439.764 1052.4 439.764C1051.37 439.764 1050.38 439.629 1049.43 439.359C1048.49 439.088 1047.66 438.655 1046.96 438.06C1046.25 437.438 1045.69 436.64 1045.25 435.665C1044.85 434.691 1044.65 433.515 1044.65 432.135V426.859Z" fill="#D4E6DB"/>
<rect x="342.018" y="472.501" width="73.6219" height="73.6219" stroke="#BDCDC3" stroke-width="1.69099"/>
<rect x="416.273" y="472.501" width="73.6219" height="73.6219" stroke="#BDCDC3" stroke-width="1.69099"/>
<rect x="415.757" y="398.964" width="73.6219" height="73.6219" stroke="#BDCDC3" stroke-width="1.69099"/>
<rect x="268.766" y="472.501" width="73.6219" height="73.6219" stroke="#BDCDC3" stroke-width="1.69099"/>
<path d="M875.13 270.855H890.674V274.954H878.945V282.949H889.456V287.048H878.945V295.895H890.674V299.994H875.13V270.855ZM876.956 267.649C876.442 267.108 876.185 266.445 876.185 265.66C876.185 264.876 876.442 264.213 876.956 263.672C877.497 263.131 878.16 262.86 878.945 262.86C879.73 262.86 880.392 263.131 880.934 263.672C881.475 264.213 881.745 264.876 881.745 265.66C881.745 266.445 881.475 267.108 880.934 267.649C880.392 268.19 879.73 268.461 878.945 268.461C878.16 268.461 877.497 268.19 876.956 267.649ZM885.114 267.649C884.6 267.108 884.343 266.445 884.343 265.66C884.343 264.876 884.6 264.213 885.114 263.672C885.655 263.131 886.318 262.86 887.102 262.86C887.887 262.86 888.55 263.131 889.091 263.672C889.632 264.213 889.903 264.876 889.903 265.66C889.903 266.445 889.632 267.108 889.091 267.649C888.55 268.19 887.887 268.461 887.102 268.461C886.318 268.461 885.655 268.19 885.114 267.649ZM905.502 296.545C906.151 296.545 906.787 296.463 907.409 296.301C908.031 296.139 908.613 295.936 909.154 295.692C909.722 295.449 910.223 295.165 910.656 294.84C911.089 294.515 911.454 294.191 911.751 293.866L912.726 296.747C912.509 297.207 912.171 297.654 911.711 298.087C911.278 298.52 910.737 298.925 910.088 299.304C909.465 299.656 908.748 299.94 907.937 300.156C907.125 300.373 906.246 300.481 905.299 300.481C903.784 300.481 902.377 300.238 901.078 299.751C899.806 299.237 898.697 298.533 897.75 297.64C896.83 296.72 896.1 295.611 895.559 294.312C895.045 292.987 894.787 291.512 894.787 289.889C894.787 288.482 895.017 287.143 895.477 285.871C895.937 284.572 896.6 283.436 897.466 282.462C898.332 281.488 899.373 280.717 900.591 280.149C901.808 279.553 903.188 279.256 904.731 279.256C906.192 279.256 907.504 279.54 908.667 280.108C909.831 280.676 910.818 281.447 911.63 282.421C912.468 283.368 913.104 284.491 913.537 285.79C913.97 287.061 914.187 288.414 914.187 289.848C914.187 290.281 914.146 290.741 914.065 291.228H898.562C898.751 293.014 899.468 294.353 900.713 295.246C901.957 296.112 903.554 296.545 905.502 296.545ZM910.25 287.494C910.196 286.899 910.02 286.344 909.722 285.83C909.425 285.289 909.019 284.829 908.505 284.451C908.018 284.045 907.45 283.734 906.8 283.517C906.151 283.301 905.461 283.192 904.731 283.192C904 283.192 903.283 283.301 902.58 283.517C901.903 283.734 901.294 284.031 900.753 284.41C900.239 284.789 899.806 285.249 899.455 285.79C899.103 286.304 898.886 286.872 898.805 287.494H910.25ZM898.075 273.412C898.075 272.654 898.332 272.018 898.846 271.504C899.387 270.963 900.023 270.693 900.753 270.693C901.511 270.693 902.147 270.963 902.661 271.504C903.202 272.018 903.472 272.654 903.472 273.412C903.472 274.142 903.202 274.778 902.661 275.319C902.147 275.833 901.511 276.09 900.753 276.09C900.023 276.09 899.387 275.833 898.846 275.319C898.332 274.778 898.075 274.142 898.075 273.412ZM906.07 273.412C906.07 272.654 906.327 272.018 906.841 271.504C907.382 270.963 908.018 270.693 908.748 270.693C909.506 270.693 910.142 270.963 910.656 271.504C911.197 272.018 911.467 272.654 911.467 273.412C911.467 274.142 911.197 274.778 910.656 275.319C910.142 275.833 909.506 276.09 908.748 276.09C908.018 276.09 907.382 275.833 906.841 275.319C906.327 274.778 906.07 274.142 906.07 273.412Z" fill="#D4E6DB"/>
<path d="M953.253 283.598L964.089 270.855H969.081L956.906 285.019L969.933 299.994H964.617L953.253 286.804V299.994H949.438V286.804L938.075 299.994H932.758L945.786 285.019L933.611 270.855H938.602L949.438 283.598V270.855H953.253V283.598ZM987.974 288.306L995.969 279.743H1000.72L991.627 289.524L1001.69 299.994H996.538L987.974 290.985V299.994H984.281V290.985L975.718 299.994H970.564L980.629 289.524L971.538 279.743H976.286L984.281 288.306V279.743H987.974V288.306Z" fill="#D4E6DB"/>
<path d="M1043.13 152.878H1039.07L1036.43 146.182H1023.28L1020.68 152.878H1016.5L1027.79 123.739H1031.88L1043.13 152.878ZM1024.86 142.083H1034.85L1029.81 129.258L1024.86 142.083ZM1059.11 145.695C1058.78 145.127 1058.13 144.707 1057.16 144.437C1056.18 144.139 1055.14 143.99 1054.03 143.99C1052.49 143.99 1051.29 144.234 1050.42 144.721C1049.58 145.181 1049.16 145.844 1049.16 146.709C1049.16 147.521 1049.57 148.184 1050.38 148.698C1051.22 149.185 1052.44 149.429 1054.03 149.429C1054.57 149.429 1055.1 149.374 1055.61 149.266C1056.16 149.158 1056.66 149.009 1057.12 148.82C1057.58 148.63 1057.98 148.4 1058.33 148.13C1058.69 147.859 1058.94 147.562 1059.11 147.237V145.695ZM1046.56 135.671C1047.32 134.615 1048.36 133.763 1049.69 133.114C1051.02 132.465 1052.49 132.14 1054.11 132.14C1056.82 132.14 1058.94 132.843 1060.49 134.25C1062.03 135.63 1062.8 137.578 1062.8 140.094V152.878H1059.23V151.092C1058.98 151.444 1058.65 151.755 1058.21 152.026C1057.78 152.296 1057.29 152.54 1056.75 152.756C1056.24 152.946 1055.7 153.095 1055.13 153.203C1054.56 153.311 1053.99 153.365 1053.42 153.365C1051.02 153.365 1049.08 152.797 1047.62 151.661C1046.19 150.497 1045.47 148.874 1045.47 146.791C1045.47 145.735 1045.67 144.802 1046.08 143.99C1046.51 143.179 1047.09 142.489 1047.82 141.921C1048.55 141.352 1049.41 140.933 1050.38 140.662C1051.35 140.365 1052.41 140.216 1053.55 140.216C1054.01 140.216 1054.49 140.257 1055.01 140.338C1055.55 140.392 1056.06 140.487 1056.55 140.622C1057.06 140.757 1057.54 140.933 1057.97 141.149C1058.4 141.339 1058.78 141.582 1059.11 141.88V140.906C1059.11 140.067 1058.96 139.35 1058.66 138.755C1058.36 138.133 1057.97 137.632 1057.48 137.253C1056.99 136.848 1056.41 136.55 1055.74 136.361C1055.09 136.171 1054.4 136.077 1053.67 136.077C1052.37 136.077 1051.19 136.334 1050.14 136.848C1049.08 137.362 1048.24 138.038 1047.62 138.877L1046.56 135.671Z" fill="#D4E6DB"/>
<path d="M1077.78 103.887V66.2622L119.41 546.08H269.485" stroke="#D4E6DB" stroke-opacity="0.2" stroke-width="1.69099"/>
<path d="M873.44 226.436V197.297H888.334V201.396H877.092V208.742H881.597C882.923 208.742 884.14 208.958 885.25 209.391C886.386 209.824 887.36 210.433 888.172 211.217C888.983 211.975 889.605 212.895 890.038 213.977C890.498 215.059 890.728 216.25 890.728 217.548C890.728 218.901 890.485 220.119 889.998 221.201C889.538 222.283 888.902 223.216 888.09 224.001C887.279 224.786 886.305 225.394 885.168 225.827C884.059 226.233 882.855 226.436 881.556 226.436H873.44ZM882.206 222.337C882.882 222.337 883.504 222.215 884.073 221.972C884.641 221.728 885.128 221.39 885.534 220.957C885.966 220.524 886.291 220.024 886.508 219.456C886.751 218.86 886.873 218.238 886.873 217.589C886.873 216.182 886.426 215.046 885.534 214.18C884.641 213.287 883.531 212.84 882.206 212.84H877.092V222.337H882.206ZM913.924 199.894C913.302 200.435 912.612 200.868 911.854 201.193C911.124 201.491 910.352 201.748 909.541 201.964C908.729 202.18 907.904 202.383 907.065 202.573C906.253 202.735 905.469 202.925 904.711 203.141C903.521 203.466 902.547 203.885 901.789 204.399C901.032 204.913 900.436 205.495 900.004 206.144C899.571 206.794 899.26 207.497 899.07 208.255C898.908 208.985 898.827 209.756 898.827 210.568C899.287 209.81 899.814 209.201 900.409 208.742C901.032 208.255 901.668 207.876 902.317 207.605C902.993 207.335 903.67 207.159 904.346 207.078C905.05 206.969 905.712 206.915 906.335 206.915C907.687 206.915 908.932 207.159 910.068 207.646C911.232 208.106 912.233 208.769 913.072 209.634C913.937 210.473 914.6 211.488 915.06 212.678C915.547 213.869 915.791 215.167 915.791 216.574C915.791 218.008 915.534 219.361 915.02 220.633C914.506 221.877 913.789 222.973 912.869 223.92C911.976 224.84 910.907 225.57 909.663 226.111C908.445 226.652 907.133 226.923 905.726 226.923C904.13 226.923 902.669 226.639 901.343 226.071C900.044 225.503 898.921 224.664 897.974 223.555C897.027 222.418 896.283 220.998 895.742 219.293C895.228 217.589 894.971 215.6 894.971 213.327C894.971 211.65 895.106 210.094 895.377 208.66C895.648 207.199 896.067 205.901 896.635 204.764C897.23 203.601 898.001 202.613 898.948 201.802C899.895 200.963 901.045 200.3 902.398 199.813C903.21 199.543 904.048 199.313 904.914 199.123C905.78 198.907 906.659 198.69 907.552 198.474C908.445 198.257 909.311 198.014 910.15 197.743C911.015 197.446 911.841 197.08 912.625 196.648L913.924 199.894ZM905.523 222.986C906.47 222.986 907.349 222.851 908.161 222.581C908.973 222.283 909.663 221.877 910.231 221.363C910.826 220.849 911.286 220.227 911.611 219.496C911.935 218.739 912.098 217.886 912.098 216.939C912.098 216.047 911.922 215.221 911.57 214.464C911.245 213.706 910.785 213.07 910.19 212.556C909.622 212.015 908.932 211.596 908.12 211.298C907.309 211.001 906.416 210.852 905.442 210.852C904.765 210.852 904.075 210.96 903.372 211.177C902.696 211.366 902.06 211.664 901.465 212.069C900.869 212.475 900.328 212.976 899.841 213.571C899.381 214.166 899.03 214.843 898.786 215.6C898.813 216.764 899.003 217.805 899.354 218.725C899.733 219.618 900.22 220.389 900.815 221.038C901.438 221.661 902.141 222.148 902.926 222.499C903.737 222.824 904.603 222.986 905.523 222.986Z" fill="#D4E6DB"/>
<path d="M956.033 197.297C957.359 197.297 958.563 197.473 959.645 197.825C960.755 198.176 961.702 198.69 962.486 199.367C963.271 200.016 963.88 200.841 964.312 201.842C964.745 202.843 964.962 203.993 964.962 205.292C964.962 206.591 964.732 207.7 964.272 208.62C963.812 209.513 963.19 210.27 962.405 210.892C963.595 211.461 964.569 212.326 965.327 213.49C966.085 214.653 966.463 216.128 966.463 217.913C966.463 219.293 966.233 220.511 965.773 221.566C965.341 222.621 964.718 223.514 963.907 224.245C963.122 224.948 962.175 225.489 961.066 225.868C959.983 226.247 958.793 226.436 957.494 226.436H948.688V197.297H956.033ZM952.503 213.612V222.337H958.265C958.861 222.337 959.429 222.229 959.97 222.012C960.511 221.796 960.971 221.498 961.35 221.12C961.729 220.741 962.026 220.281 962.243 219.74C962.486 219.199 962.608 218.617 962.608 217.995C962.608 217.426 962.5 216.885 962.283 216.371C962.067 215.83 961.769 215.357 961.39 214.951C961.012 214.545 960.552 214.22 960.011 213.977C959.469 213.733 958.874 213.612 958.225 213.612H952.503ZM952.503 201.396V209.513H956.967C958.184 209.513 959.185 209.161 959.97 208.457C960.755 207.727 961.147 206.739 961.147 205.495C961.147 204.304 960.768 203.33 960.011 202.573C959.253 201.788 958.238 201.396 956.967 201.396H952.503ZM979.536 206.185C981.539 206.185 983.162 206.672 984.406 207.646C985.678 208.62 986.314 209.959 986.314 211.664C986.314 212.502 986.179 213.273 985.908 213.977C985.665 214.653 985.205 215.262 984.528 215.803C986.368 216.696 987.288 218.292 987.288 220.592C987.288 221.458 987.098 222.256 986.72 222.986C986.368 223.69 985.881 224.299 985.259 224.813C984.636 225.327 983.892 225.733 983.027 226.03C982.188 226.301 981.281 226.436 980.307 226.436H971.825V206.185H979.536ZM981.038 222.581C981.769 222.581 982.364 222.378 982.824 221.972C983.284 221.539 983.514 220.984 983.514 220.308C983.514 219.631 983.27 219.104 982.783 218.725C982.323 218.346 981.741 218.157 981.038 218.157H975.519V222.581H981.038ZM980.226 214.342C980.903 214.342 981.457 214.153 981.89 213.774C982.323 213.368 982.54 212.854 982.54 212.232C982.54 211.501 982.31 210.96 981.85 210.608C981.39 210.23 980.849 210.04 980.226 210.04H975.519V214.342H980.226Z" fill="#D4E6DB"/>
<path d="M1028.16 197.297H1042.29V201.396H1031.98V226.436H1028.16V197.297ZM1056.59 206.185V210.121H1047.62V226.436H1043.93V206.185H1056.59Z" fill="#D4E6DB"/>
<path d="M1035.5 284.288C1036.72 284.965 1037.7 285.925 1038.43 287.17C1039.18 288.414 1039.56 289.916 1039.56 291.674C1039.56 293.027 1039.33 294.245 1038.87 295.327C1038.41 296.409 1037.78 297.343 1036.97 298.127C1036.15 298.885 1035.19 299.467 1034.08 299.872C1032.97 300.278 1031.77 300.481 1030.47 300.481C1029.39 300.481 1028.37 300.346 1027.43 300.075C1026.48 299.805 1025.63 299.453 1024.87 299.02C1024.11 298.56 1023.48 298.046 1022.96 297.478C1022.45 296.91 1022.07 296.342 1021.83 295.773L1022.88 292.283C1023.83 293.636 1024.95 294.651 1026.25 295.327C1027.58 296.003 1028.98 296.342 1030.47 296.342C1032.1 296.342 1033.37 295.909 1034.29 295.043C1035.23 294.177 1035.71 293 1035.71 291.512C1035.71 290.917 1035.59 290.335 1035.34 289.767C1035.1 289.199 1034.75 288.698 1034.29 288.265C1033.83 287.805 1033.24 287.454 1032.54 287.21C1031.84 286.94 1031.03 286.804 1030.11 286.804H1027.63V282.665H1030.19C1030.89 282.665 1031.51 282.557 1032.05 282.34C1032.6 282.097 1033.06 281.786 1033.43 281.407C1033.81 281.028 1034.1 280.595 1034.29 280.108C1034.48 279.594 1034.57 279.053 1034.57 278.485C1034.57 277.375 1034.21 276.442 1033.47 275.684C1032.74 274.9 1031.76 274.508 1030.51 274.508C1029.08 274.508 1027.82 274.846 1026.74 275.522C1025.66 276.199 1024.72 277.064 1023.94 278.12L1023.13 274.426C1023.42 273.858 1023.82 273.331 1024.3 272.844C1024.82 272.357 1025.39 271.937 1026.01 271.586C1026.66 271.207 1027.36 270.909 1028.12 270.693C1028.88 270.476 1029.66 270.368 1030.47 270.368C1031.64 270.368 1032.7 270.571 1033.68 270.977C1034.65 271.356 1035.49 271.897 1036.19 272.6C1036.9 273.277 1037.44 274.088 1037.82 275.035C1038.2 275.982 1038.39 277.024 1038.39 278.16C1038.39 279.432 1038.13 280.595 1037.61 281.65C1037.1 282.705 1036.4 283.585 1035.5 284.288ZM1050.66 296.545C1052.09 296.545 1053.17 296.287 1053.9 295.773C1054.66 295.259 1055.04 294.651 1055.04 293.947C1055.04 293.217 1054.72 292.635 1054.07 292.202C1053.44 291.742 1052.52 291.512 1051.31 291.512H1048.63V287.576H1050.94C1052 287.576 1052.81 287.4 1053.38 287.048C1053.94 286.669 1054.23 286.087 1054.23 285.303C1054.23 284.681 1053.92 284.18 1053.3 283.801C1052.7 283.395 1051.89 283.192 1050.86 283.192C1049.91 283.192 1048.97 283.368 1048.02 283.72C1047.07 284.072 1046.14 284.681 1045.22 285.546L1044.25 282.584C1044.95 281.637 1045.88 280.852 1047.05 280.23C1048.24 279.581 1049.62 279.256 1051.19 279.256C1052.19 279.256 1053.11 279.391 1053.94 279.662C1054.78 279.932 1055.5 280.311 1056.1 280.798C1056.69 281.285 1057.15 281.88 1057.48 282.584C1057.83 283.26 1058 284.031 1058 284.897C1058 285.898 1057.79 286.777 1057.35 287.535C1056.95 288.292 1056.38 288.847 1055.65 289.199C1057.81 290.065 1058.9 291.756 1058.9 294.272C1058.9 295.219 1058.68 296.071 1058.25 296.829C1057.81 297.586 1057.22 298.236 1056.46 298.777C1055.73 299.318 1054.88 299.737 1053.9 300.035C1052.93 300.332 1051.92 300.481 1050.86 300.481C1049.24 300.481 1047.8 300.184 1046.56 299.588C1045.34 298.993 1044.34 298.141 1043.56 297.032L1044.53 294.028C1045.91 295.706 1047.95 296.545 1050.66 296.545Z" fill="#D4E6DB"/>
<path d="M599.485 373.552H595.67V350.704L579.964 373.552H575.824V344.413H579.639V367.384L595.345 344.413H599.485V373.552ZM610.146 353.301V367.465L620.941 353.301H624.634V373.552H620.941V359.389L610.146 373.552H606.453V353.301H610.146Z" fill="#D4E6DB"/>
<path d="M428.709 417.971H451.72V447.11H447.905V422.07H432.524V447.11H428.709V417.971ZM476.479 426.859V447.11H472.786V430.796H462.397V447.11H458.703V426.859H476.479Z" fill="#D4E6DB"/>
<path d="M434.451 520.668V495.628H428.323V491.529H438.266V502.974H442.771C444.097 502.974 445.314 503.19 446.424 503.623C447.56 504.056 448.534 504.665 449.346 505.449C450.157 506.207 450.78 507.127 451.213 508.209C451.672 509.291 451.902 510.482 451.902 511.78C451.902 513.133 451.659 514.351 451.172 515.433C450.712 516.515 450.076 517.449 449.264 518.233C448.453 519.018 447.479 519.627 446.342 520.059C445.233 520.465 444.029 520.668 442.731 520.668H434.451ZM443.38 516.569C444.056 516.569 444.679 516.448 445.247 516.204C445.815 515.961 446.302 515.622 446.708 515.189C447.141 514.757 447.465 514.256 447.682 513.688C447.925 513.093 448.047 512.47 448.047 511.821C448.047 510.414 447.601 509.278 446.708 508.412C445.815 507.519 444.706 507.073 443.38 507.073H438.266V516.569H443.38ZM459.366 520.668V504.354H454.131V500.417H463.059V506.464H467.199C468.281 506.464 469.282 506.64 470.202 506.991C471.149 507.343 471.961 507.844 472.637 508.493C473.34 509.115 473.881 509.859 474.26 510.725C474.666 511.591 474.869 512.538 474.869 513.566C474.869 514.621 474.666 515.582 474.26 516.448C473.854 517.313 473.3 518.071 472.596 518.72C471.92 519.342 471.108 519.829 470.161 520.181C469.214 520.506 468.213 520.668 467.158 520.668H459.366ZM467.686 516.732C468.714 516.732 469.539 516.434 470.161 515.839C470.784 515.216 471.095 514.432 471.095 513.485C471.095 512.538 470.757 511.794 470.08 511.253C469.431 510.685 468.633 510.401 467.686 510.401H463.059V516.732H467.686Z" fill="#D4E6DB"/>
<path d="M520.834 491.529H524.649V520.668H520.834V491.529ZM507.847 520.668C509.146 520.668 510.35 520.465 511.459 520.059C512.596 519.626 513.57 519.018 514.381 518.233C515.193 517.448 515.829 516.515 516.289 515.433C516.776 514.323 517.019 513.106 517.019 511.78C517.019 510.481 516.789 509.291 516.329 508.209C515.897 507.127 515.274 506.207 514.463 505.449C513.651 504.664 512.677 504.056 511.541 503.623C510.431 503.19 509.214 502.973 507.888 502.973H503.546V491.529H499.731V520.668H507.847ZM503.546 516.569V507.072H508.497C509.822 507.072 510.932 507.519 511.825 508.412C512.717 509.277 513.164 510.414 513.164 511.821C513.164 512.47 513.042 513.092 512.799 513.688C512.582 514.256 512.258 514.756 511.825 515.189C511.419 515.622 510.932 515.96 510.364 516.204C509.795 516.447 509.173 516.569 508.497 516.569H503.546ZM549.768 500.417H553.461V520.668H549.768V500.417ZM531.627 520.668V500.417H535.32V506.464H539.054C540.136 506.464 541.137 506.64 542.057 506.991C543.004 507.343 543.816 507.844 544.492 508.493C545.196 509.115 545.737 509.859 546.116 510.725C546.521 511.591 546.724 512.538 546.724 513.566C546.724 514.621 546.521 515.581 546.116 516.447C545.71 517.313 545.155 518.071 544.452 518.72C543.775 519.342 542.964 519.829 542.017 520.181C541.07 520.506 540.069 520.668 539.013 520.668H531.627ZM539.541 516.731C540.569 516.731 541.394 516.434 542.017 515.839C542.639 515.216 542.95 514.432 542.95 513.485C542.95 512.538 542.612 511.794 541.936 511.253C541.286 510.684 540.488 510.4 539.541 510.4H535.32V516.731H539.541Z" fill="#D4E6DB"/>
<path d="M589.861 520.668C591.16 520.668 592.364 520.465 593.473 520.059C594.609 519.627 595.583 519.018 596.395 518.233C597.207 517.449 597.843 516.515 598.302 515.433C598.789 514.324 599.033 513.106 599.033 511.78C599.033 510.482 598.803 509.291 598.343 508.209C597.91 507.127 597.288 506.207 596.476 505.449C595.665 504.665 594.691 504.056 593.554 503.623C592.445 503.19 591.227 502.974 589.902 502.974H585.559V491.529H581.744V520.668H589.861ZM585.559 516.569V507.073H590.51C591.836 507.073 592.945 507.519 593.838 508.412C594.731 509.278 595.178 510.414 595.178 511.821C595.178 512.47 595.056 513.093 594.812 513.688C594.596 514.256 594.271 514.757 593.838 515.189C593.432 515.622 592.945 515.961 592.377 516.204C591.809 516.448 591.187 516.569 590.51 516.569H585.559ZM603.574 520.668V500.417H607.267V506.464H611.407C612.489 506.464 613.49 506.64 614.41 506.991C615.357 507.343 616.169 507.844 616.845 508.493C617.549 509.115 618.09 509.859 618.468 510.725C618.874 511.591 619.077 512.538 619.077 513.566C619.077 514.621 618.874 515.582 618.468 516.448C618.063 517.313 617.508 518.071 616.805 518.72C616.128 519.342 615.316 519.829 614.37 520.181C613.423 520.506 612.422 520.668 611.366 520.668H603.574ZM611.894 516.732C612.922 516.732 613.747 516.434 614.37 515.839C614.992 515.216 615.303 514.432 615.303 513.485C615.303 512.538 614.965 511.794 614.288 511.253C613.639 510.685 612.841 510.401 611.894 510.401H607.267V516.732H611.894Z" fill="#D4E6DB"/>
<path d="M275.53 493.431H279.166V517.298H288.914V493.431H292.55V517.298H302.375V493.431H306.011V521.205H275.53V493.431ZM312.655 521.205V501.903H316.176V517.452H323.486V501.903H327.006V517.452H334.317V501.903H337.837V521.205H312.655Z" fill="#D4E6DB"/>
<path d="M673.043 373.552H669.228V350.704L653.523 373.552H649.383V344.413H653.198V367.384L668.904 344.413H673.043V373.552ZM667.767 337.149C667.794 338.014 667.632 338.799 667.28 339.502C666.929 340.206 666.455 340.815 665.86 341.329C665.265 341.843 664.561 342.249 663.75 342.546C662.938 342.817 662.072 342.952 661.152 342.952C660.232 342.952 659.367 342.817 658.555 342.546C657.743 342.249 657.04 341.843 656.445 341.329C655.849 340.815 655.376 340.206 655.024 339.502C654.672 338.799 654.51 338.014 654.537 337.149L657.743 336.459C657.797 337.216 658.122 337.879 658.717 338.447C659.312 338.988 660.124 339.259 661.152 339.259C662.18 339.259 662.992 338.988 663.587 338.447C664.183 337.879 664.507 337.216 664.561 336.459L667.767 337.149ZM683.704 353.301V367.465L694.5 353.301H698.193V373.552H694.5V359.389L683.704 373.552H680.011V353.301H683.704ZM695.596 345.184C695.596 346.05 695.42 346.848 695.068 347.579C694.743 348.282 694.283 348.891 693.688 349.405C693.12 349.919 692.43 350.325 691.618 350.622C690.834 350.92 689.995 351.069 689.102 351.069C688.209 351.069 687.357 350.92 686.545 350.622C685.761 350.325 685.071 349.919 684.476 349.405C683.907 348.891 683.447 348.282 683.096 347.579C682.771 346.848 682.609 346.05 682.609 345.184L685.815 344.657C685.869 345.36 686.18 345.996 686.748 346.564C687.316 347.105 688.101 347.376 689.102 347.376C690.103 347.376 690.888 347.105 691.456 346.564C692.024 345.996 692.335 345.36 692.389 344.657L695.596 345.184Z" fill="#D4E6DB"/>
<path d="M726.323 344.413H730.138V357.156L741.908 344.413H746.94L733.913 358.577L748.32 373.552H742.963L730.138 360.363V373.552H726.323V344.413ZM751.958 353.301H755.651V361.824L764.62 353.301H769.653L759.425 363.082L770.627 373.552H765.148L755.651 364.624V373.552H751.958V353.301Z" fill="#D4E6DB"/>
<path d="M819.132 344.413V373.552H815.317V348.512H805.983L805.942 349.689C805.78 354.18 805.482 357.968 805.049 361.052C804.616 364.11 804.021 366.585 803.264 368.479C802.506 370.346 801.586 371.685 800.504 372.497C799.422 373.309 798.177 373.715 796.77 373.715C796.527 373.715 796.283 373.688 796.04 373.633C795.796 373.579 795.607 373.525 795.472 373.471L794.822 369.94C795.58 369.859 796.27 369.71 796.892 369.494C797.541 369.277 798.123 368.885 798.637 368.317C799.151 367.722 799.611 366.897 800.017 365.841C800.423 364.759 800.774 363.352 801.072 361.621C801.37 359.862 801.6 357.711 801.762 355.168C801.951 352.625 802.1 349.567 802.208 345.996L802.249 344.413H819.132ZM823.486 370.103C824.379 369.994 825.177 369.737 825.88 369.332C826.584 368.926 827.179 368.182 827.666 367.099C828.153 365.99 828.532 364.448 828.802 362.473C829.1 360.498 829.303 357.873 829.411 354.6L829.452 353.301H843.575V373.552H839.882V357.238H832.942L832.901 358.212C832.685 363.46 831.954 367.356 830.71 369.9C829.465 372.443 827.693 373.715 825.393 373.715C824.879 373.715 824.46 373.66 824.135 373.552L823.486 370.103Z" fill="#D4E6DB"/>
<path d="M886.799 344.413H890.898L894.794 373.552H891.019L887.976 351.312L879.94 373.552H876.206L868.008 351.312L865.168 373.552H861.231L865.086 344.413H869.185L877.951 367.992L886.799 344.413ZM919.15 353.301H922.965L926.13 373.552H922.478L920.246 360.16L914.605 373.552H911.196L905.676 360.078L903.444 373.552H899.67L902.835 353.301H906.569L912.859 368.195L919.15 353.301Z" fill="#D4E6DB"/>
<path d="M943.615 344.413H947.43V356.507H963.217V344.413H967.032V373.552H963.217V360.606H947.43V373.552H943.615V344.413ZM977.699 353.301V361.134H988.332V353.301H992.025V373.552H988.332V365.07H977.699V373.552H974.006V353.301H977.699Z" fill="#D4E6DB"/>
<path d="M1023.27 345.103C1025.03 344.318 1026.88 343.926 1028.83 343.926C1030.78 343.926 1032.63 344.305 1034.39 345.062C1036.15 345.82 1037.69 346.875 1039.01 348.228C1040.34 349.581 1041.4 351.177 1042.18 353.017C1042.96 354.857 1043.36 356.845 1043.36 358.983C1043.36 361.147 1042.96 363.149 1042.18 364.989C1041.4 366.802 1040.34 368.385 1039.01 369.737C1037.69 371.09 1036.15 372.145 1034.39 372.903C1032.66 373.66 1030.83 374.039 1028.91 374.039C1026.93 374.039 1025.05 373.66 1023.27 372.903C1021.51 372.118 1019.97 371.063 1018.64 369.737C1017.32 368.385 1016.26 366.802 1015.48 364.989C1014.69 363.149 1014.3 361.161 1014.3 359.023C1014.3 356.886 1014.69 354.897 1015.48 353.057C1016.26 351.191 1017.32 349.594 1018.64 348.269C1019.97 346.916 1021.51 345.861 1023.27 345.103ZM1028.87 348.066C1027.35 348.066 1025.95 348.336 1024.65 348.877C1023.35 349.418 1022.21 350.176 1021.24 351.15C1020.29 352.124 1019.53 353.287 1018.97 354.64C1018.43 355.966 1018.15 357.427 1018.15 359.023C1018.15 360.62 1018.43 362.094 1018.97 363.447C1019.53 364.773 1020.29 365.923 1021.24 366.897C1022.21 367.843 1023.35 368.588 1024.65 369.129C1025.95 369.643 1027.35 369.9 1028.87 369.9C1030.36 369.9 1031.75 369.643 1033.05 369.129C1034.35 368.588 1035.47 367.843 1036.42 366.897C1037.36 365.923 1038.11 364.773 1038.65 363.447C1039.22 362.094 1039.5 360.606 1039.5 358.983C1039.5 357.386 1039.22 355.925 1038.65 354.6C1038.11 353.247 1037.36 352.097 1036.42 351.15C1035.47 350.176 1034.35 349.418 1033.05 348.877C1031.75 348.336 1030.36 348.066 1028.87 348.066ZM1067.32 359.226C1067.89 360.525 1068.17 361.932 1068.17 363.447C1068.17 364.962 1067.89 366.369 1067.32 367.668C1066.78 368.966 1066.03 370.089 1065.09 371.036C1064.17 371.983 1063.08 372.727 1061.84 373.268C1060.62 373.782 1059.32 374.039 1057.94 374.039C1056.56 374.039 1055.25 373.782 1054.01 373.268C1052.76 372.727 1051.67 371.983 1050.72 371.036C1049.8 370.089 1049.07 368.966 1048.53 367.668C1047.99 366.369 1047.72 364.962 1047.72 363.447C1047.72 361.932 1047.99 360.525 1048.53 359.226C1049.07 357.928 1049.8 356.805 1050.72 355.858C1051.67 354.911 1052.76 354.167 1054.01 353.626C1055.25 353.085 1056.56 352.814 1057.94 352.814C1059.32 352.814 1060.62 353.085 1061.84 353.626C1063.08 354.167 1064.17 354.911 1065.09 355.858C1066.03 356.805 1066.78 357.928 1067.32 359.226ZM1051.41 363.447C1051.41 364.448 1051.57 365.368 1051.9 366.207C1052.22 367.018 1052.68 367.722 1053.28 368.317C1053.87 368.885 1054.56 369.332 1055.35 369.656C1056.13 369.954 1057 370.103 1057.94 370.103C1058.86 370.103 1059.72 369.954 1060.5 369.656C1061.31 369.332 1062.02 368.885 1062.61 368.317C1063.21 367.722 1063.67 367.018 1063.99 366.207C1064.32 365.395 1064.48 364.489 1064.48 363.487C1064.48 362.486 1064.32 361.58 1063.99 360.768C1063.67 359.93 1063.21 359.213 1062.61 358.617C1062.02 358.022 1061.31 357.562 1060.5 357.238C1059.72 356.913 1058.86 356.751 1057.94 356.751C1057 356.751 1056.13 356.913 1055.35 357.238C1054.56 357.562 1053.87 358.022 1053.28 358.617C1052.68 359.213 1052.22 359.93 1051.9 360.768C1051.57 361.58 1051.41 362.473 1051.41 363.447Z" fill="#D4E6DB"/>
<path d="M348.494 492.797H351.951V515.49H361.219V492.797H364.676V515.49H374.018V492.797H377.476V515.49H381.117V524.869H377.807V519.205H348.494V492.797ZM399.629 500.852V515.637H406.58V500.852H409.927V515.637H412.98V524.096H409.78V519.205H385.984V500.852H389.331V515.637H396.282V500.852H399.629Z" fill="#D4E6DB"/>
</svg>
